<svg class="poloto" width="800" height="500" viewBox="0 0 800 500" xmlns="http://www.w3.org/2000/svg">
	<style>
 .poloto{
  stroke-linecap:round;
  stroke-linejoin:round;
  font-family:Roboto,sans-serif;
  font-size:16px;
}
.poloto_background{fill:AliceBlue;}
.poloto_scatter{stroke-width:7}
.poloto_line{stroke-width:2}
.poloto_text{fill: black;}
.poloto_name{font-size:24px;dominant-baseline:start;text-anchor:middle;}
.poloto_where{dominant-baseline:middle;text-anchor:start}
.poloto_text.poloto_legend{font-size:20px;dominant-baseline:middle;text-anchor:start;}
.poloto_text.poloto_ticks.poloto_y{dominant-baseline:middle;text-anchor:end}
.poloto_text.poloto_ticks.poloto_x{dominant-baseline:start;text-anchor:middle}
.poloto_imgs.poloto_ticks{stroke: black;stroke-width:3;fill:none;stroke-dasharray:none}
.poloto_grid{stroke:gray;stroke-width:0.5}

.poloto0.poloto_stroke{stroke:blue;}
.poloto1.poloto_stroke{stroke:red;}
.poloto2.poloto_stroke{stroke:green;}
.poloto3.poloto_stroke{stroke:gold;}
.poloto4.poloto_stroke{stroke:aqua;}
.poloto5.poloto_stroke{stroke:lime;}
.poloto6.poloto_stroke{stroke:orange;}
.poloto7.poloto_stroke{stroke:chocolate;}
.poloto0.poloto_fill{fill:blue;}
.poloto1.poloto_fill{fill:red;}
.poloto2.poloto_fill{fill:green;}
.poloto3.poloto_fill{fill:gold;}
.poloto4.poloto_fill{fill:aqua;}
.poloto5.poloto_fill{fill:lime;}
.poloto6.poloto_fill{fill:orange;}
.poloto7.poloto_fill{fill:chocolate;}
 .poloto_background{fill:white;}
 .poloto_imgs.poloto_ticks{stroke:white;stroke-width:0px;}
 .poloto_text{fill: white;stroke-width:0px;}
 .poloto_scatter.poloto_plot{fill:black;stroke-width:3px;}
 .poloto_line.poloto_imgs.poloto_plot{stroke:black;stroke-width:2px}
	</style>
	<circle r="1e5" class="poloto_background"/>
	<g id="poloto_plot0" class="poloto_plot poloto_imgs poloto_line poloto0 poloto_stroke" fill="none" stroke="black">
		<path d=" M 150.00 250.00 L 152.57 234.88 L 155.30 220.67 L 158.16 207.36 L 161.17 194.93 L 164.31 183.36 L 167.59 172.63 L 171.00 162.72 L 174.54 153.62 L 178.21 145.31 L 182.00 137.76 L 185.91 130.96 L 189.94 124.89 L 194.08 119.53 L 198.33 114.86 L 202.69 110.87 L 207.15 107.53 L 211.72 104.83 L 216.38 102.74 L 221.15 101.25 L 226.00 100.35 L 230.94 100.00 L 235.98 100.20 L 241.09 100.92 L 246.29 102.14 L 251.56 103.85 L 256.91 106.03 L 262.33 108.66 L 267.82 111.72 L 273.38 115.19 L 279.00 119.05 L 284.68 123.29 L 290.42 127.88 L 296.21 132.81 L 302.05 138.06 L 307.94 143.61 L 313.87 149.43 L 319.85 155.52 L 325.86 161.85 L 331.92 168.41 L 338.00 175.17 L 344.11 182.12 L 350.26 189.24 L 356.42 196.51 L 362.61 203.91 L 368.81 211.42 L 375.03 219.02 L 381.26 226.70 L 387.50 234.44 L 393.75 242.21 L 400.00 250.00 L 406.25 257.79 L 412.50 265.56 L 418.74 273.30 L 424.97 280.98 L 431.19 288.58 L 437.39 296.09 L 443.58 303.49 L 449.74 310.76 L 455.89 317.88 L 462.00 324.83 L 468.08 331.59 L 474.14 338.15 L 480.15 344.48 L 486.13 350.57 L 492.06 356.39 L 497.95 361.94 L 503.79 367.19 L 509.58 372.12 L 515.32 376.71 L 521.00 380.95 L 526.62 384.81 L 532.18 388.28 L 537.67 391.34 L 543.09 393.97 L 548.44 396.15 L 553.71 397.86 L 558.91 399.08 L 564.02 399.80 L 569.06 400.00 L 574.00 399.65 L 578.85 398.75 L 583.62 397.26 L 588.28 395.17 L 592.85 392.47 L 597.31 389.13 L 601.67 385.14 L 605.92 380.47 L 610.06 375.11 L 614.09 369.04 L 618.00 362.24 L 621.79 354.69 L 625.46 346.38 L 629.00 337.28 L 632.41 327.37 L 635.69 316.64 L 638.83 305.07 L 641.84 292.64 L 644.70 279.33 L 647.43 265.12 L 650.00 250.00"/>
	</g>
	<g id="poloto_plot1" class="poloto_plot poloto_imgs poloto_scatter poloto1 poloto_stroke">
		<path d=""/>
	</g>
	<text class="poloto_text poloto_name poloto_title" x="400.00" y="37.50"></text>
	<text class="poloto_text poloto_name poloto_x" x="400.00" y="481.25"></text>
	<text class="poloto_text poloto_name poloto_y" x="37.50" y="250.00" transform="rotate(-90,37.50,250.00)"></text>
	<text class="poloto_text poloto_ticks poloto_y">
		<tspan x="135.00" y="353.93">-0.2</tspan>
		<tspan x="135.00" y="301.96">-0.1</tspan>
		<tspan x="135.00" y="250.00">0.0</tspan>
		<tspan x="135.00" y="198.04">0.1</tspan>
		<tspan x="135.00" y="146.07">0.2</tspan>
	</text>
	<g class="poloto_imgs poloto_ticks poloto_y">
		<line x1="150.00" x2="144.00" y1="353.93" y2="353.93"/>
		<line x1="150.00" x2="144.00" y1="301.96" y2="301.96"/>
		<line x1="150.00" x2="144.00" y1="250.00" y2="250.00"/>
		<line x1="150.00" x2="144.00" y1="198.04" y2="198.04"/>
		<line x1="150.00" x2="144.00" y1="146.07" y2="146.07"/>
	</g>
	<text class="poloto_text poloto_ticks poloto_x">
		<tspan x="150.00" y="430.00">0</tspan>
		<tspan x="233.33" y="430.00">1</tspan>
		<tspan x="316.67" y="430.00">2</tspan>
		<tspan x="400.00" y="430.00">3</tspan>
		<tspan x="483.33" y="430.00">4</tspan>
		<tspan x="566.67" y="430.00">5</tspan>
		<tspan x="650.00" y="430.00">6</tspan>
	</text>
	<g class="poloto_imgs poloto_ticks poloto_x">
		<line x1="150.00" x2="150.00" y1="400.00" y2="405.00"/>
		<line x1="233.33" x2="233.33" y1="400.00" y2="405.00"/>
		<line x1="316.67" x2="316.67" y1="400.00" y2="405.00"/>
		<line x1="400.00" x2="400.00" y1="400.00" y2="405.00"/>
		<line x1="483.33" x2="483.33" y1="400.00" y2="405.00"/>
		<line x1="566.67" x2="566.67" y1="400.00" y2="405.00"/>
		<line x1="650.00" x2="650.00" y1="400.00" y2="405.00"/>
	</g>
	<path class="poloto_imgs poloto_ticks poloto_x" style="stroke-dasharray:8.333333333333332;stroke-dashoffset:-0;" d=" M 150.00 400.00 L 650.00 400.00"/>
	<path class="poloto_imgs poloto_ticks poloto_y" style="stroke-dasharray:12.990792126540704;stroke-dashoffset:-46.07366298767434;" d=" M 150.00 400.00 L 150.00 100.00"/>
</svg>
