<svg class="poloto" width="800" height="500" viewBox="0 0 800 500" xmlns="http://www.w3.org/2000/svg">
	<style>
 .poloto{
  stroke-linecap:round;
  stroke-linejoin:round;
  font-family:Roboto,sans-serif;
  font-size:16px;
}
.poloto_background{fill:AliceBlue;}
.poloto_scatter{stroke-width:7}
.poloto_line{stroke-width:2}
.poloto_text{fill: black;}
.poloto_name{font-size:24px;dominant-baseline:start;text-anchor:middle;}
.poloto_where{dominant-baseline:middle;text-anchor:start}
.poloto_text.poloto_legend{font-size:20px;dominant-baseline:middle;text-anchor:start;}
.poloto_text.poloto_ticks.poloto_y{dominant-baseline:middle;text-anchor:end}
.poloto_text.poloto_ticks.poloto_x{dominant-baseline:start;text-anchor:middle}
.poloto_imgs.poloto_ticks{stroke: black;stroke-width:3;fill:none;stroke-dasharray:none}
.poloto_grid{stroke:gray;stroke-width:0.5}

.poloto0.poloto_stroke{stroke:blue;}
.poloto1.poloto_stroke{stroke:red;}
.poloto2.poloto_stroke{stroke:green;}
.poloto3.poloto_stroke{stroke:gold;}
.poloto4.poloto_stroke{stroke:aqua;}
.poloto5.poloto_stroke{stroke:lime;}
.poloto6.poloto_stroke{stroke:orange;}
.poloto7.poloto_stroke{stroke:chocolate;}
.poloto0.poloto_fill{fill:blue;}
.poloto1.poloto_fill{fill:red;}
.poloto2.poloto_fill{fill:green;}
.poloto3.poloto_fill{fill:gold;}
.poloto4.poloto_fill{fill:aqua;}
.poloto5.poloto_fill{fill:lime;}
.poloto6.poloto_fill{fill:orange;}
.poloto7.poloto_fill{fill:chocolate;}
 .poloto_background{fill:white;}
 .poloto_imgs.poloto_ticks{stroke:white;stroke-width:0px;}
 .poloto_text{fill: white;stroke-width:0px;}
 .poloto_scatter.poloto_plot{fill:black;stroke-width:3px;}
 .poloto_line.poloto_imgs.poloto_plot{stroke:black;stroke-width:2px}
	</style>
	<circle r="1e5" class="poloto_background"/>
	<g id="poloto_plot0" class="poloto_plot poloto_imgs poloto_line poloto0 poloto_stroke" fill="none" stroke="black">
		<path d=" M 150.00 263.64 L 150.14 263.60 L 150.28 263.55 L 150.42 263.51 L 150.56 263.47 L 150.70 263.43 L 150.84 263.39 L 150.98 263.35 L 151.12 263.30 L 151.26 263.26 L 151.40 263.22 L 151.54 263.18 L 151.67 263.13 L 151.81 263.09 L 151.95 263.05 L 152.09 263.00 L 152.23 262.96 L 152.36 262.92 L 152.50 262.87 L 152.64 262.83 L 152.78 262.79 L 152.91 262.74 L 153.05 262.70 L 153.19 262.65 L 153.32 262.61 L 153.46 262.56 L 153.59 262.52 L 153.73 262.47 L 153.86 262.43 L 154.00 262.38 L 154.14 262.34 L 154.27 262.29 L 154.41 262.24 L 154.54 262.20 L 154.67 262.15 L 154.81 262.11 L 154.94 262.06 L 155.08 262.01 L 155.21 261.97 L 155.34 261.92 L 155.48 261.87 L 155.61 261.82 L 155.74 261.78 L 155.88 261.73 L 156.01 261.68 L 156.14 261.63 L 156.27 261.58 L 156.41 261.54 L 156.54 261.49 L 156.67 261.44 L 156.80 261.39 L 156.93 261.34 L 157.06 261.29 L 157.20 261.24 L 157.33 261.19 L 157.46 261.14 L 157.59 261.09 L 157.72 261.04 L 157.85 260.99 L 157.98 260.94 L 158.11 260.89 L 158.24 260.84 L 158.37 260.79 L 158.50 260.74 L 158.63 260.69 L 158.75 260.64 L 158.88 260.59 L 159.01 260.54 L 159.14 260.49 L 159.27 260.43 L 159.40 260.38 L 159.52 260.33 L 159.65 260.28 L 159.78 260.23 L 159.91 260.17 L 160.03 260.12 L 160.16 260.07 L 160.29 260.02 L 160.42 259.96 L 160.54 259.91 L 160.67 259.86 L 160.79 259.80 L 160.92 259.75 L 161.05 259.69 L 161.17 259.64 L 161.30 259.59 L 161.42 259.53 L 161.55 259.48 L 161.67 259.42 L 161.80 259.37 L 161.92 259.31 L 162.05 259.26 L 162.17 259.20 L 162.30 259.15 L 162.42 259.09 L 162.54 259.04 L 162.67 258.98 L 162.79 258.93 L 162.91 258.87 L 163.04 258.81 L 163.16 258.76 L 163.28 258.70 L 163.41 258.64 L 163.53 258.59 L 163.65 258.53 L 163.77 258.47 L 163.89 258.42 L 164.02 258.36 L 164.14 258.30 L 164.26 258.24 L 164.38 258.19 L 164.50 258.13 L 164.62 258.07 L 164.74 258.01 L 164.86 257.95 L 164.99 257.90 L 165.11 257.84 L 165.23 257.78 L 165.35 257.72 L 165.47 257.66 L 165.59 257.60 L 165.71 257.54 L 165.82 257.48 L 165.94 257.42 L 166.06 257.36 L 166.18 257.30 L 166.30 257.24 L 166.42 257.18 L 166.54 257.12 L 166.66 257.06 L 166.77 257.00 L 166.89 256.94 L 167.01 256.88 L 167.13 256.82 L 167.24 256.76 L 167.36 256.70 L 167.48 256.64 L 167.60 256.58 L 167.71 256.51 L 167.83 256.45 L 167.95 256.39 L 168.06 256.33 L 168.18 256.27 L 168.30 256.20 L 168.41 256.14 L 168.53 256.08 L 168.64 256.02 L 168.76 255.95 L 168.87 255.89 L 168.99 255.83 L 169.10 255.76 L 169.22 255.70 L 169.33 255.64 L 169.45 255.57 L 169.56 255.51 L 169.68 255.44 L 169.79 255.38 L 169.90 255.32 L 170.02 255.25 L 170.13 255.19 L 170.24 255.12 L 170.36 255.06 L 170.47 254.99 L 170.58 254.93 L 170.70 254.86 L 170.81 254.80 L 170.92 254.73 L 171.03 254.67 L 171.15 254.60 L 171.26 254.53 L 171.37 254.47 L 171.48 254.40 L 171.59 254.34 L 171.70 254.27 L 171.82 254.20 L 171.93 254.14 L 172.04 254.07 L 172.15 254.00 L 172.26 253.94 L 172.37 253.87 L 172.48 253.80 L 172.59 253.73 L 172.70 253.67 L 172.81 253.60 L 172.92 253.53 L 173.03 253.46 L 173.14 253.39 L 173.25 253.33 L 173.36 253.26 L 173.47 253.19 L 173.58 253.12 L 173.68 253.05 L 173.79 252.98 L 173.90 252.91 L 174.01 252.84 L 174.12 252.78 L 174.23 252.71 L 174.33 252.64 L 174.44 252.57 L 174.55 252.50 L 174.66 252.43 L 174.76 252.36 L 174.87 252.29 L 174.98 252.22 L 175.08 252.15 L 175.19 252.08 L 175.30 252.01 L 175.40 251.93 L 175.51 251.86 L 175.62 251.79 L 175.72 251.72 L 175.83 251.65 L 175.93 251.58 L 176.04 251.51 L 176.14 251.44 L 176.25 251.36 L 176.36 251.29 L 176.46 251.22 L 176.57 251.15 L 176.67 251.08 L 176.77 251.00 L 176.88 250.93 L 176.98 250.86 L 177.09 250.79 L 177.19 250.71 L 177.29 250.64 L 177.40 250.57 L 177.50 250.49 L 177.61 250.42 L 177.71 250.35 L 177.81 250.27 L 177.92 250.20 L 178.02 250.12 L 178.12 250.05 L 178.22 249.98 L 178.33 249.90 L 178.43 249.83 L 178.53 249.75 L 178.63 249.68 L 178.73 249.60 L 178.84 249.53 L 178.94 249.45 L 179.04 249.38 L 179.14 249.30 L 179.24 249.23 L 179.34 249.15 L 179.44 249.08 L 179.54 249.00 L 179.65 248.93 L 179.75 248.85 L 179.85 248.77 L 179.95 248.70 L 180.05 248.62 L 180.15 248.55 L 180.25 248.47 L 180.35 248.39 L 180.45 248.32 L 180.55 248.24 L 180.64 248.16 L 180.74 248.09 L 180.84 248.01 L 180.94 247.93 L 181.04 247.85 L 181.14 247.78 L 181.24 247.70 L 181.34 247.62 L 181.43 247.54 L 181.53 247.46 L 181.63 247.39 L 181.73 247.31 L 181.83 247.23 L 181.92 247.15 L 182.02 247.07 L 182.12 246.99 L 182.22 246.92 L 182.31 246.84 L 182.41 246.76 L 182.51 246.68 L 182.60 246.60 L 182.70 246.52 L 182.80 246.44 L 182.89 246.36 L 182.99 246.28 L 183.09 246.20 L 183.18 246.12 L 183.28 246.04 L 183.37 245.96 L 183.47 245.88 L 183.56 245.80 L 183.66 245.72 L 183.75 245.64 L 183.85 245.56 L 183.94 245.48 L 184.04 245.40 L 184.13 245.32 L 184.23 245.24 L 184.32 245.15 L 184.42 245.07 L 184.51 244.99 L 184.61 244.91 L 184.70 244.83 L 184.79 244.75 L 184.89 244.66 L 184.98 244.58 L 185.07 244.50 L 185.17 244.42 L 185.26 244.34 L 185.35 244.25 L 185.45 244.17 L 185.54 244.09 L 185.63 244.01 L 185.72 243.92 L 185.82 243.84 L 185.91 243.76 L 186.00 243.67 L 186.09 243.59 L 186.19 243.51 L 186.28 243.42 L 186.37 243.34 L 186.46 243.26 L 186.55 243.17 L 186.64 243.09 L 186.73 243.00 L 186.83 242.92 L 186.92 242.84 L 187.01 242.75 L 187.10 242.67 L 187.19 242.58 L 187.28 242.50 L 187.37 242.41 L 187.46 242.33 L 187.55 242.24 L 187.64 242.16 L 187.73 242.07 L 187.82 241.99 L 187.91 241.90 L 188.00 241.82 L 188.09 241.73 L 188.18 241.65 L 188.27 241.56 L 188.36 241.48 L 188.45 241.39 L 188.53 241.30 L 188.62 241.22 L 188.71 241.13 L 188.80 241.04 L 188.89 240.96 L 188.98 240.87 L 189.07 240.78 L 189.15 240.70 L 189.24 240.61 L 189.33 240.52 L 189.42 240.44 L 189.50 240.35 L 189.59 240.26 L 189.68 240.18 L 189.77 240.09 L 189.85 240.00 L 189.94 239.91 L 190.03 239.82 L 190.12 239.74 L 190.20 239.65 L 190.29 239.56 L 190.38 239.47 L 190.46 239.38 L 190.55 239.30 L 190.63 239.21 L 190.72 239.12 L 190.81 239.03 L 190.89 238.94 L 190.98 238.85 L 191.06 238.76 L 191.15 238.68 L 191.23 238.59 L 191.32 238.50 L 191.40 238.41 L 191.49 238.32 L 191.57 238.23 L 191.66 238.14 L 191.74 238.05 L 191.83 237.96 L 191.91 237.87 L 192.00 237.78 L 192.08 237.69 L 192.17 237.60 L 192.25 237.51 L 192.33 237.42 L 192.42 237.33 L 192.50 237.24 L 192.59 237.15 L 192.67 237.06 L 192.75 236.97 L 192.84 236.88 L 192.92 236.78 L 193.00 236.69 L 193.09 236.60 L 193.17 236.51 L 193.25 236.42 L 193.33 236.33 L 193.42 236.24 L 193.50 236.15 L 193.58 236.05 L 193.66 235.96 L 193.75 235.87 L 193.83 235.78 L 193.91 235.69 L 193.99 235.59 L 194.07 235.50 L 194.16 235.41 L 194.24 235.32 L 194.32 235.22 L 194.40 235.13 L 194.48 235.04 L 194.56 234.95 L 194.64 234.85 L 194.73 234.76 L 194.81 234.67 L 194.89 234.57 L 194.97 234.48 L 195.05 234.39 L 195.13 234.29 L 195.21 234.20 L 195.29 234.11 L 195.37 234.01 L 195.45 233.92 L 195.53 233.83 L 195.61 233.73 L 195.69 233.64 L 195.77 233.55 L 195.85 233.45 L 195.93 233.36 L 196.01 233.26 L 196.09 233.17 L 196.17 233.07 L 196.25 232.98 L 196.33 232.88 L 196.40 232.79 L 196.48 232.69 L 196.56 232.60 L 196.64 232.51 L 196.72 232.41 L 196.80 232.31 L 196.88 232.22 L 196.95 232.12 L 197.03 232.03 L 197.11 231.93 L 197.19 231.84 L 197.27 231.74 L 197.35 231.65 L 197.42 231.55 L 197.50 231.45 L 197.58 231.36 L 197.66 231.26 L 197.73 231.17 L 197.81 231.07 L 197.89 230.97 L 197.96 230.88 L 198.04 230.78 L 198.12 230.69 L 198.20 230.59 L 198.27 230.49 L 198.35 230.40 L 198.43 230.30 L 198.50 230.20 L 198.58 230.10 L 198.65 230.01 L 198.73 229.91 L 198.81 229.81 L 198.88 229.72 L 198.96 229.62 L 199.03 229.52 L 199.11 229.42 L 199.19 229.33 L 199.26 229.23 L 199.34 229.13 L 199.41 229.03 L 199.49 228.93 L 199.56 228.84 L 199.64 228.74 L 199.71 228.64 L 199.79 228.54 L 199.86 228.44 L 199.94 228.35 L 200.01 228.25 L 200.09 228.15 L 200.16 228.05 L 200.24 227.95 L 200.31 227.85 L 200.38 227.75 L 200.46 227.66 L 200.53 227.56 L 200.61 227.46 L 200.68 227.36 L 200.75 227.26 L 200.83 227.16 L 200.90 227.06 L 200.98 226.96 L 201.05 226.86 L 201.12 226.76 L 201.20 226.66 L 201.27 226.56 L 201.34 226.46 L 201.42 226.36 L 201.49 226.26 L 201.56 226.16 L 201.63 226.06 L 201.71 225.96 L 201.78 225.86 L 201.85 225.76 L 201.93 225.66 L 202.00 225.56 L 202.07 225.46 L 202.14 225.36 L 202.21 225.26 L 202.29 225.16 L 202.36 225.06 L 202.43 224.96 L 202.50 224.86 L 202.57 224.76 L 202.65 224.66 L 202.72 224.55 L 202.79 224.45 L 202.86 224.35 L 202.93 224.25 L 203.00 224.15 L 203.08 224.05 L 203.15 223.95 L 203.22 223.84 L 203.29 223.74 L 203.36 223.64 L 203.43 223.54 L 203.50 223.44 L 203.57 223.34 L 203.64 223.23 L 203.71 223.13 L 203.78 223.03 L 203.85 222.93 L 203.93 222.83 L 204.00 222.72 L 204.07 222.62 L 204.14 222.52 L 204.21 222.42 L 204.28 222.31 L 204.35 222.21 L 204.42 222.11 L 204.49 222.01 L 204.56 221.90 L 204.62 221.80 L 204.69 221.70 L 204.76 221.59 L 204.83 221.49 L 204.90 221.39 L 204.97 221.28 L 205.04 221.18 L 205.11 221.08 L 205.18 220.97 L 205.25 220.87 L 205.32 220.77 L 205.39 220.66 L 205.46 220.56 L 205.52 220.46 L 205.59 220.35 L 205.66 220.25 L 205.73 220.15 L 205.80 220.04 L 205.87 219.94 L 205.93 219.83 L 206.00 219.73 L 206.07 219.63 L 206.14 219.52 L 206.21 219.42 L 206.28 219.31 L 206.34 219.21 L 206.41 219.10 L 206.48 219.00 L 206.55 218.90 L 206.61 218.79 L 206.68 218.69 L 206.75 218.58 L 206.82 218.48 L 206.88 218.37 L 206.95 218.27 L 207.02 218.16 L 207.09 218.06 L 207.15 217.95 L 207.22 217.85 L 207.29 217.74 L 207.35 217.64 L 207.42 217.53 L 207.49 217.43 L 207.55 217.32 L 207.62 217.22 L 207.69 217.11 L 207.75 217.00 L 207.82 216.90 L 207.89 216.79 L 207.95 216.69 L 208.02 216.58 L 208.09 216.48 L 208.15 216.37 L 208.22 216.26 L 208.28 216.16 L 208.35 216.05 L 208.42 215.95 L 208.48 215.84 L 208.55 215.73 L 208.61 215.63 L 208.68 215.52 L 208.75 215.41 L 208.81 215.31 L 208.88 215.20 L 208.94 215.09 L 209.01 214.99 L 209.07 214.88 L 209.14 214.78 L 209.20 214.67 L 209.27 214.56 L 209.33 214.45 L 209.40 214.35 L 209.46 214.24 L 209.53 214.13 L 209.59 214.03 L 209.66 213.92 L 209.72 213.81 L 209.79 213.71 L 209.85 213.60 L 209.92 213.49 L 209.98 213.38 L 210.05 213.28 L 210.11 213.17 L 210.18 213.06 L 210.24 212.95 L 210.30 212.85 L 210.37 212.74 L 210.43 212.63 L 210.50 212.52 L 210.56 212.42 L 210.62 212.31 L 210.69 212.20 L 210.75 212.09 L 210.82 211.98 L 210.88 211.88 L 210.94 211.77 L 211.01 211.66 L 211.07 211.55 L 211.13 211.44 L 211.20 211.34 L 211.26 211.23 L 211.32 211.12 L 211.39 211.01 L 211.45 210.90 L 211.51 210.79 L 211.58 210.69 L 211.64 210.58 L 211.70 210.47 L 211.77 210.36 L 211.83 210.25 L 211.89 210.14 L 211.96 210.03 L 212.02 209.93 L 212.08 209.82 L 212.15 209.71 L 212.21 209.60 L 212.27 209.49 L 212.33 209.38 L 212.40 209.27 L 212.46 209.16 L 212.52 209.05 L 212.58 208.95 L 212.65 208.84 L 212.71 208.73 L 212.77 208.62 L 212.83 208.51 L 212.89 208.40 L 212.96 208.29 L 213.02 208.18 L 213.08 208.07 L 213.14 207.96 L 213.21 207.85 L 213.27 207.74 L 213.33 207.63 L 213.39 207.52 L 213.45 207.41 L 213.51 207.30 L 213.58 207.19 L 213.64 207.08 L 213.70 206.97 L 213.76 206.86 L 213.82 206.75 L 213.88 206.64 L 213.95 206.53 L 214.01 206.42 L 214.07 206.31 L 214.13 206.20 L 214.19 206.09 L 214.25 205.98 L 214.31 205.87 L 214.38 205.76 L 214.44 205.65 L 214.50 205.54 L 214.56 205.43 L 214.62 205.32 L 214.68 205.21 L 214.74 205.10 L 214.80 204.99 L 214.86 204.88 L 214.92 204.77 L 214.99 204.66 L 215.05 204.55 L 215.11 204.44 L 215.17 204.33 L 215.23 204.22 L 215.29 204.11 L 215.35 204.00 L 215.41 203.88 L 215.47 203.77 L 215.53 203.66 L 215.59 203.55 L 215.65 203.44 L 215.71 203.33 L 215.77 203.22 L 215.83 203.11 L 215.89 203.00 L 215.95 202.89 L 216.01 202.77 L 216.07 202.66 L 216.13 202.55 L 216.19 202.44 L 216.25 202.33 L 216.31 202.22 L 216.37 202.11 L 216.43 202.00 L 216.49 201.88 L 216.55 201.77 L 216.61 201.66 L 216.67 201.55 L 216.73 201.44 L 216.79 201.33 L 216.85 201.22 L 216.91 201.10 L 216.97 200.99 L 217.03 200.88 L 217.09 200.77 L 217.15 200.66 L 217.21 200.55 L 217.27 200.43 L 217.33 200.32 L 217.39 200.21 L 217.45 200.10 L 217.51 199.99 L 217.57 199.88 L 217.63 199.76 L 217.68 199.65 L 217.74 199.54 L 217.80 199.43 L 217.86 199.32 L 217.92 199.20 L 217.98 199.09 L 218.04 198.98 L 218.10 198.87 L 218.16 198.76 L 218.22 198.64 L 218.28 198.53 L 218.33 198.42 L 218.39 198.31 L 218.45 198.20 L 218.51 198.08 L 218.57 197.97 L 218.63 197.86 L 218.69 197.75 L 218.75 197.63 L 218.81 197.52 L 218.86 197.41 L 218.92 197.30 L 218.98 197.18 L 219.04 197.07 L 219.10 196.96 L 219.16 196.85 L 219.22 196.73 L 219.27 196.62 L 219.33 196.51 L 219.39 196.40 L 219.45 196.28 L 219.51 196.17 L 219.57 196.06 L 219.63 195.95 L 219.68 195.83 L 219.74 195.72 L 219.80 195.61 L 219.86 195.50 L 219.92 195.38 L 219.98 195.27 L 220.03 195.16 L 220.09 195.04 L 220.15 194.93 L 220.21 194.82 L 220.27 194.71 L 220.33 194.59 L 220.38 194.48 L 220.44 194.37 L 220.50 194.25 L 220.56 194.14 L 220.62 194.03 L 220.67 193.92 L 220.73 193.80 L 220.79 193.69 L 220.85 193.58 L 220.91 193.46 L 220.96 193.35 L 221.02 193.24 L 221.08 193.12 L 221.14 193.01 L 221.20 192.90 L 221.25 192.79 L 221.31 192.67 L 221.37 192.56 L 221.43 192.45 L 221.49 192.33 L 221.54 192.22 L 221.60 192.11 L 221.66 191.99 L 221.72 191.88 L 221.77 191.77 L 221.83 191.65 L 221.89 191.54 L 221.95 191.43 L 222.01 191.31 L 222.06 191.20 L 222.12 191.09 L 222.18 190.97 L 222.24 190.86 L 222.29 190.75 L 222.35 190.63 L 222.41 190.52 L 222.47 190.41 L 222.52 190.29 L 222.58 190.18 L 222.64 190.07 L 222.70 189.95 L 222.75 189.84 L 222.81 189.73 L 222.87 189.61 L 222.93 189.50 L 222.98 189.39 L 223.04 189.27 L 223.10 189.16 L 223.16 189.05 L 223.21 188.93 L 223.27 188.82 L 223.33 188.71 L 223.39 188.59 L 223.44 188.48 L 223.50 188.37 L 223.56 188.25 L 223.62 188.14 L 223.67 188.02 L 223.73 187.91 L 223.79 187.80 L 223.85 187.68 L 223.90 187.57 L 223.96 187.46 L 224.02 187.34 L 224.08 187.23 L 224.13 187.12 L 224.19 187.00 L 224.25 186.89 L 224.31 186.78 L 224.36 186.66 L 224.42 186.55 L 224.48 186.43 L 224.53 186.32 L 224.59 186.21 L 224.65 186.09 L 224.71 185.98 L 224.76 185.87 L 224.82 185.75 L 224.88 185.64 L 224.94 185.53 L 224.99 185.41 L 225.05 185.30 L 225.11 185.19 L 225.17 185.07 L 225.22 184.96 L 225.28 184.84 L 225.34 184.73 L 225.39 184.62 L 225.45 184.50 L 225.51 184.39 L 225.57 184.28 L 225.62 184.16 L 225.68 184.05 L 225.74 183.94 L 225.80 183.82 L 225.85 183.71 L 225.91 183.59 L 225.97 183.48 L 226.02 183.37 L 226.08 183.25 L 226.14 183.14 L 226.20 183.03 L 226.25 182.91 L 226.31 182.80 L 226.37 182.69 L 226.43 182.57 L 226.48 182.46 L 226.54 182.34 L 226.60 182.23 L 226.66 182.12 L 226.71 182.00 L 226.77 181.89 L 226.83 181.78 L 226.88 181.66 L 226.94 181.55 L 227.00 181.44 L 227.06 181.32 L 227.11 181.21 L 227.17 181.09 L 227.23 180.98 L 227.29 180.87 L 227.34 180.75 L 227.40 180.64 L 227.46 180.53 L 227.52 180.41 L 227.57 180.30 L 227.63 180.19 L 227.69 180.07 L 227.75 179.96 L 227.80 179.85 L 227.86 179.73 L 227.92 179.62 L 227.98 179.51 L 228.03 179.39 L 228.09 179.28 L 228.15 179.17 L 228.21 179.05 L 228.26 178.94 L 228.32 178.82 L 228.38 178.71 L 228.44 178.60 L 228.49 178.48 L 228.55 178.37 L 228.61 178.26 L 228.67 178.14 L 228.72 178.03 L 228.78 177.92 L 228.84 177.80 L 228.90 177.69 L 228.95 177.58 L 229.01 177.46 L 229.07 177.35 L 229.13 177.24 L 229.18 177.12 L 229.24 177.01 L 229.30 176.90 L 229.36 176.78 L 229.42 176.67 L 229.47 176.56 L 229.53 176.44 L 229.59 176.33 L 229.65 176.22 L 229.70 176.11 L 229.76 175.99 L 229.82 175.88 L 229.88 175.77 L 229.94 175.65 L 229.99 175.54 L 230.05 175.43 L 230.11 175.31 L 230.17 175.20 L 230.23 175.09 L 230.28 174.97 L 230.34 174.86 L 230.40 174.75 L 230.46 174.64 L 230.52 174.52 L 230.57 174.41 L 230.63 174.30 L 230.69 174.18 L 230.75 174.07 L 230.81 173.96 L 230.86 173.84 L 230.92 173.73 L 230.98 173.62 L 231.04 173.51 L 231.10 173.39 L 231.15 173.28 L 231.21 173.17 L 231.27 173.06 L 231.33 172.94 L 231.39 172.83 L 231.45 172.72 L 231.50 172.60 L 231.56 172.49 L 231.62 172.38 L 231.68 172.27 L 231.74 172.15 L 231.80 172.04 L 231.86 171.93 L 231.91 171.82 L 231.97 171.70 L 232.03 171.59 L 232.03 171.59 L 232.09 171.48 L 232.15 171.37 L 232.21 171.25 L 232.27 171.14 L 232.32 171.03 L 232.38 170.92 L 232.44 170.80 L 232.50 170.69 L 232.56 170.58 L 232.62 170.47 L 232.68 170.35 L 232.74 170.24 L 232.80 170.13 L 232.85 170.02 L 232.91 169.91 L 232.97 169.79 L 233.03 169.68 L 233.09 169.57 L 233.15 169.46 L 233.21 169.35 L 233.27 169.23 L 233.33 169.12 L 233.39 169.01 L 233.44 168.90 L 233.50 168.79 L 233.56 168.67 L 233.62 168.56 L 233.68 168.45 L 233.74 168.34 L 233.80 168.23 L 233.86 168.11 L 233.92 168.00 L 233.98 167.89 L 234.04 167.78 L 234.10 167.67 L 234.16 167.56 L 234.22 167.44 L 234.28 167.33 L 234.34 167.22 L 234.40 167.11 L 234.46 167.00 L 234.52 166.89 L 234.58 166.77 L 234.64 166.66 L 234.69 166.55 L 234.75 166.44 L 234.81 166.33 L 234.87 166.22 L 234.93 166.11 L 234.99 166.00 L 235.05 165.88 L 235.11 165.77 L 235.17 165.66 L 235.24 165.55 L 235.30 165.44 L 235.36 165.33 L 235.42 165.22 L 235.48 165.11 L 235.54 165.00 L 235.60 164.88 L 235.66 164.77 L 235.72 164.66 L 235.78 164.55 L 235.84 164.44 L 235.90 164.33 L 235.96 164.22 L 236.02 164.11 L 236.08 164.00 L 236.14 163.89 L 236.20 163.78 L 236.26 163.67 L 236.32 163.56 L 236.38 163.44 L 236.45 163.33 L 236.51 163.22 L 236.57 163.11 L 236.63 163.00 L 236.69 162.89 L 236.75 162.78 L 236.81 162.67 L 236.87 162.56 L 236.93 162.45 L 237.00 162.34 L 237.06 162.23 L 237.12 162.12 L 237.18 162.01 L 237.24 161.90 L 237.30 161.79 L 237.36 161.68 L 237.43 161.57 L 237.49 161.46 L 237.55 161.35 L 237.61 161.24 L 237.67 161.13 L 237.73 161.02 L 237.80 160.91 L 237.86 160.80 L 237.92 160.69 L 237.98 160.58 L 238.04 160.47 L 238.10 160.36 L 238.17 160.25 L 238.23 160.15 L 238.29 160.04 L 238.35 159.93 L 238.42 159.82 L 238.48 159.71 L 238.54 159.60 L 238.60 159.49 L 238.67 159.38 L 238.73 159.27 L 238.79 159.16 L 238.85 159.05 L 238.92 158.94 L 238.98 158.84 L 239.04 158.73 L 239.10 158.62 L 239.17 158.51 L 239.23 158.40 L 239.29 158.29 L 239.35 158.18 L 239.42 158.07 L 239.48 157.97 L 239.54 157.86 L 239.61 157.75 L 239.67 157.64 L 239.73 157.53 L 239.80 157.42 L 239.86 157.31 L 239.92 157.21 L 239.99 157.10 L 240.05 156.99 L 240.11 156.88 L 240.18 156.77 L 240.24 156.67 L 240.31 156.56 L 240.37 156.45 L 240.43 156.34 L 240.50 156.23 L 240.56 156.13 L 240.62 156.02 L 240.69 155.91 L 240.75 155.80 L 240.82 155.69 L 240.88 155.59 L 240.95 155.48 L 241.01 155.37 L 241.07 155.26 L 241.14 155.16 L 241.20 155.05 L 241.27 154.94 L 241.33 154.83 L 241.40 154.73 L 241.46 154.62 L 241.53 154.51 L 241.59 154.41 L 241.66 154.30 L 241.72 154.19 L 241.79 154.09 L 241.85 153.98 L 241.92 153.87 L 241.98 153.76 L 242.05 153.66 L 242.11 153.55 L 242.18 153.44 L 242.24 153.34 L 242.31 153.23 L 242.37 153.13 L 242.44 153.02 L 242.50 152.91 L 242.57 152.81 L 242.63 152.70 L 242.70 152.59 L 242.77 152.49 L 242.83 152.38 L 242.90 152.27 L 242.96 152.17 L 243.03 152.06 L 243.10 151.96 L 243.16 151.85 L 243.23 151.75 L 243.30 151.64 L 243.36 151.53 L 243.43 151.43 L 243.49 151.32 L 243.56 151.22 L 243.63 151.11 L 243.69 151.01 L 243.76 150.90 L 243.83 150.80 L 243.90 150.69 L 243.96 150.59 L 244.03 150.48 L 244.10 150.37 L 244.16 150.27 L 244.23 150.16 L 244.30 150.06 L 244.37 149.96 L 244.43 149.85 L 244.50 149.75 L 244.57 149.64 L 244.64 149.54 L 244.70 149.43 L 244.77 149.33 L 244.84 149.22 L 244.91 149.12 L 244.97 149.01 L 245.04 148.91 L 245.11 148.81 L 245.18 148.70 L 245.25 148.60 L 245.31 148.49 L 245.38 148.39 L 245.45 148.28 L 245.52 148.18 L 245.59 148.08 L 245.66 147.97 L 245.73 147.87 L 245.79 147.77 L 245.86 147.66 L 245.93 147.56 L 246.00 147.46 L 246.07 147.35 L 246.14 147.25 L 246.21 147.15 L 246.28 147.04 L 246.35 146.94 L 246.42 146.84 L 246.49 146.73 L 246.56 146.63 L 246.63 146.53 L 246.69 146.42 L 246.76 146.32 L 246.83 146.22 L 246.90 146.12 L 246.97 146.01 L 247.04 145.91 L 247.11 145.81 L 247.18 145.71 L 247.25 145.60 L 247.33 145.50 L 247.40 145.40 L 247.47 145.30 L 247.54 145.20 L 247.61 145.09 L 247.68 144.99 L 247.75 144.89 L 247.82 144.79 L 247.89 144.69 L 247.96 144.58 L 248.03 144.48 L 248.10 144.38 L 248.17 144.28 L 248.25 144.18 L 248.32 144.08 L 248.39 143.98 L 248.46 143.87 L 248.53 143.77 L 248.60 143.67 L 248.68 143.57 L 248.75 143.47 L 248.82 143.37 L 248.89 143.27 L 248.96 143.17 L 249.04 143.07 L 249.11 142.97 L 249.18 142.87 L 249.25 142.77 L 249.33 142.67 L 249.40 142.57 L 249.47 142.47 L 249.54 142.36 L 249.62 142.26 L 249.69 142.16 L 249.76 142.06 L 249.83 141.97 L 249.91 141.87 L 249.98 141.77 L 250.05 141.67 L 250.13 141.57 L 250.20 141.47 L 250.28 141.37 L 250.35 141.27 L 250.42 141.17 L 250.50 141.07 L 250.57 140.97 L 250.64 140.87 L 250.72 140.77 L 250.79 140.67 L 250.87 140.57 L 250.94 140.48 L 251.02 140.38 L 251.09 140.28 L 251.16 140.18 L 251.24 140.08 L 251.31 139.98 L 251.39 139.88 L 251.46 139.79 L 251.54 139.69 L 251.61 139.59 L 251.69 139.49 L 251.76 139.39 L 251.84 139.30 L 251.91 139.20 L 251.99 139.10 L 252.07 139.00 L 252.14 138.91 L 252.22 138.81 L 252.29 138.71 L 252.37 138.61 L 252.44 138.52 L 252.52 138.42 L 252.60 138.32 L 252.67 138.22 L 252.75 138.13 L 252.83 138.03 L 252.90 137.93 L 252.98 137.84 L 253.06 137.74 L 253.13 137.64 L 253.21 137.55 L 253.29 137.45 L 253.36 137.35 L 253.44 137.26 L 253.52 137.16 L 253.60 137.07 L 253.67 136.97 L 253.75 136.87 L 253.83 136.78 L 253.91 136.68 L 253.98 136.59 L 254.06 136.49 L 254.14 136.40 L 254.22 136.30 L 254.30 136.20 L 254.38 136.11 L 254.45 136.01 L 254.53 135.92 L 254.61 135.82 L 254.69 135.73 L 254.77 135.63 L 254.85 135.54 L 254.93 135.44 L 255.01 135.35 L 255.08 135.26 L 255.16 135.16 L 255.24 135.07 L 255.32 134.97 L 255.40 134.88 L 255.48 134.78 L 255.56 134.69 L 255.64 134.60 L 255.72 134.50 L 255.80 134.41 L 255.88 134.31 L 255.96 134.22 L 256.04 134.13 L 256.12 134.03 L 256.20 133.94 L 256.28 133.85 L 256.36 133.75 L 256.45 133.66 L 256.53 133.57 L 256.61 133.48 L 256.69 133.38 L 256.77 133.29 L 256.85 133.20 L 256.93 133.10 L 257.01 133.01 L 257.10 132.92 L 257.18 132.83 L 257.26 132.74 L 257.34 132.64 L 257.42 132.55 L 257.51 132.46 L 257.59 132.37 L 257.67 132.28 L 257.75 132.18 L 257.84 132.09 L 257.92 132.00 L 258.00 131.91 L 258.08 131.82 L 258.17 131.73 L 258.25 131.64 L 258.33 131.55 L 258.42 131.45 L 258.50 131.36 L 258.58 131.27 L 258.67 131.18 L 258.75 131.09 L 258.83 131.00 L 258.92 130.91 L 259.00 130.82 L 259.09 130.73 L 259.17 130.64 L 259.26 130.55 L 259.34 130.46 L 259.42 130.37 L 259.51 130.28 L 259.59 130.19 L 259.68 130.10 L 259.76 130.01 L 259.85 129.92 L 259.93 129.83 L 260.02 129.74 L 260.10 129.66 L 260.19 129.57 L 260.28 129.48 L 260.36 129.39 L 260.45 129.30 L 260.53 129.21 L 260.62 129.12 L 260.71 129.03 L 260.79 128.95 L 260.88 128.86 L 260.97 128.77 L 261.05 128.68 L 261.14 128.59 L 261.23 128.51 L 261.31 128.42 L 261.40 128.33 L 261.49 128.24 L 261.57 128.16 L 261.66 128.07 L 261.75 127.98 L 261.84 127.89 L 261.92 127.81 L 262.01 127.72 L 262.10 127.63 L 262.19 127.55 L 262.28 127.46 L 262.37 127.37 L 262.45 127.29 L 262.54 127.20 L 262.63 127.11 L 262.72 127.03 L 262.81 126.94 L 262.90 126.86 L 262.99 126.77 L 263.08 126.68 L 263.17 126.60 L 263.25 126.51 L 263.34 126.43 L 263.43 126.34 L 263.52 126.26 L 263.61 126.17 L 263.70 126.09 L 263.79 126.00 L 263.88 125.92 L 263.98 125.83 L 264.07 125.75 L 264.16 125.66 L 264.25 125.58 L 264.34 125.50 L 264.43 125.41 L 264.52 125.33 L 264.61 125.24 L 264.70 125.16 L 264.79 125.08 L 264.89 124.99 L 264.98 124.91 L 265.07 124.82 L 265.16 124.74 L 265.25 124.66 L 265.35 124.57 L 265.44 124.49 L 265.53 124.41 L 265.62 124.33 L 265.72 124.24 L 265.81 124.16 L 265.90 124.08 L 266.00 124.00 L 266.09 123.91 L 266.18 123.83 L 266.28 123.75 L 266.37 123.67 L 266.46 123.59 L 266.56 123.50 L 266.65 123.42 L 266.74 123.34 L 266.84 123.26 L 266.93 123.18 L 267.03 123.10 L 267.12 123.02 L 267.22 122.93 L 267.31 122.85 L 267.41 122.77 L 267.50 122.69 L 267.60 122.61 L 267.69 122.53 L 267.79 122.45 L 267.88 122.37 L 267.98 122.29 L 268.07 122.21 L 268.17 122.13 L 268.27 122.05 L 268.36 121.97 L 268.46 121.89 L 268.56 121.81 L 268.65 121.73 L 268.75 121.65 L 268.85 121.57 L 268.94 121.50 L 269.04 121.42 L 269.14 121.34 L 269.23 121.26 L 269.33 121.18 L 269.43 121.10 L 269.53 121.02 L 269.63 120.95 L 269.72 120.87 L 269.82 120.79 L 269.92 120.71 L 270.02 120.63 L 270.12 120.56 L 270.22 120.48 L 270.31 120.40 L 270.41 120.32 L 270.51 120.25 L 270.61 120.17 L 270.71 120.09 L 270.81 120.02 L 270.91 119.94 L 271.01 119.86 L 271.11 119.79 L 271.21 119.71 L 271.31 119.63 L 271.41 119.56 L 271.51 119.48 L 271.61 119.41 L 271.71 119.33 L 271.81 119.26 L 271.91 119.18 L 272.02 119.10 L 272.12 119.03 L 272.22 118.95 L 272.32 118.88 L 272.42 118.80 L 272.52 118.73 L 272.62 118.65 L 272.73 118.58 L 272.83 118.51 L 272.93 118.43 L 273.03 118.36 L 273.14 118.28 L 273.24 118.21 L 273.34 118.14 L 273.45 118.06 L 273.55 117.99 L 273.65 117.91 L 273.76 117.84 L 273.86 117.77 L 273.96 117.69 L 274.07 117.62 L 274.17 117.55 L 274.27 117.48 L 274.38 117.40 L 274.48 117.33 L 274.59 117.26 L 274.69 117.19 L 274.80 117.11 L 274.90 117.04 L 275.01 116.97 L 275.11 116.90 L 275.22 116.83 L 275.32 116.76 L 275.43 116.68 L 275.54 116.61 L 275.64 116.54 L 275.75 116.47 L 275.85 116.40 L 275.96 116.33 L 276.07 116.26 L 276.17 116.19 L 276.28 116.12 L 276.39 116.05 L 276.49 115.98 L 276.60 115.91 L 276.71 115.84 L 276.82 115.77 L 276.92 115.70 L 277.03 115.63 L 277.14 115.56 L 277.25 115.49 L 277.36 115.42 L 277.47 115.35 L 277.57 115.28 L 277.68 115.21 L 277.79 115.15 L 277.90 115.08 L 278.01 115.01 L 278.12 114.94 L 278.23 114.87 L 278.34 114.80 L 278.45 114.74 L 278.56 114.67 L 278.67 114.60 L 278.78 114.53 L 278.89 114.47 L 279.00 114.40 L 279.11 114.33 L 279.22 114.27 L 279.33 114.20 L 279.44 114.13 L 279.56 114.07 L 279.67 114.00 L 279.78 113.93 L 279.89 113.87 L 280.00 113.80 L 280.11 113.74 L 280.23 113.67 L 280.34 113.60 L 280.45 113.54 L 280.56 113.47 L 280.68 113.41 L 280.79 113.34 L 280.90 113.28 L 281.02 113.21 L 281.13 113.15 L 281.24 113.08 L 281.36 113.02 L 281.47 112.96 L 281.58 112.89 L 281.70 112.83 L 281.81 112.76 L 281.93 112.70 L 282.04 112.64 L 282.16 112.57 L 282.27 112.51 L 282.39 112.45 L 282.50 112.38 L 282.62 112.32 L 282.73 112.26 L 282.85 112.20 L 282.97 112.13 L 283.08 112.07 L 283.20 112.01 L 283.31 111.95 L 283.43 111.88 L 283.55 111.82 L 283.66 111.76 L 283.78 111.70 L 283.90 111.64 L 284.02 111.58 L 284.13 111.52 L 284.25 111.46 L 284.37 111.39 L 284.49 111.33 L 284.60 111.27 L 284.72 111.21 L 284.84 111.15 L 284.96 111.09 L 285.08 111.03 L 285.20 110.97 L 285.32 110.91 L 285.44 110.85 L 285.56 110.79 L 285.68 110.73 L 285.80 110.68 L 285.92 110.62 L 286.04 110.56 L 286.16 110.50 L 286.28 110.44 L 286.40 110.38 L 286.52 110.32 L 286.64 110.27 L 286.76 110.21 L 286.88 110.15 L 287.00 110.09 L 287.12 110.03 L 287.25 109.98 L 287.37 109.92 L 287.49 109.86 L 287.61 109.81 L 287.73 109.75 L 287.86 109.69 L 287.98 109.64 L 288.10 109.58 L 288.22 109.52 L 288.35 109.47 L 288.47 109.41 L 288.59 109.36 L 288.72 109.30 L 288.84 109.24 L 288.97 109.19 L 289.09 109.13 L 289.22 109.08 L 289.34 109.02 L 289.46 108.97 L 289.59 108.91 L 289.71 108.86 L 289.84 108.81 L 289.97 108.75 L 290.09 108.70 L 290.22 108.64 L 290.34 108.59 L 290.47 108.54 L 290.59 108.48 L 290.72 108.43 L 290.85 108.38 L 290.97 108.32 L 291.10 108.27 L 291.23 108.22 L 291.36 108.17 L 291.48 108.11 L 291.61 108.06 L 291.74 108.01 L 291.87 107.96 L 291.99 107.90 L 292.12 107.85 L 292.25 107.80 L 292.38 107.75 L 292.51 107.70 L 292.64 107.65 L 292.77 107.60 L 292.90 107.55 L 293.03 107.50 L 293.16 107.45 L 293.29 107.39 L 293.42 107.34 L 293.55 107.29 L 293.68 107.24 L 293.81 107.20 L 293.94 107.15 L 294.07 107.10 L 294.20 107.05 L 294.33 107.00 L 294.46 106.95 L 294.59 106.90 L 294.73 106.85 L 294.86 106.80 L 294.99 106.76 L 295.12 106.71 L 295.26 106.66 L 295.39 106.61 L 295.52 106.56 L 295.65 106.52 L 295.79 106.47 L 295.92 106.42 L 296.05 106.37 L 296.19 106.33 L 296.32 106.28 L 296.46 106.23 L 296.59 106.19 L 296.72 106.14 L 296.86 106.10 L 296.99 106.05 L 297.13 106.00 L 297.26 105.96 L 297.40 105.91 L 297.54 105.87 L 297.67 105.82 L 297.81 105.78 L 297.94 105.73 L 298.08 105.69 L 298.22 105.64 L 298.35 105.60 L 298.49 105.55 L 298.63 105.51 L 298.76 105.47 L 298.90 105.42 L 299.04 105.38 L 299.18 105.34 L 299.31 105.29 L 299.45 105.25 L 299.59 105.21 L 299.73 105.16 L 299.87 105.12 L 300.01 105.08 L 300.15 105.04 L 300.29 104.99 L 300.43 104.95 L 300.56 104.91 L 300.70 104.87 L 300.84 104.83 L 300.98 104.79 L 301.13 104.75 L 301.27 104.70 L 301.41 104.66 L 301.55 104.62 L 301.69 104.58 L 301.83 104.54 L 301.97 104.50 L 302.11 104.46 L 302.26 104.42 L 302.40 104.38 L 302.54 104.34 L 302.68 104.30 L 302.82 104.27 L 302.97 104.23 L 303.11 104.19 L 303.25 104.15 L 303.40 104.11 L 303.54 104.07 L 303.68 104.03 L 303.83 104.00 L 303.97 103.96 L 304.12 103.92 L 304.26 103.88 L 304.41 103.85 L 304.55 103.81 L 304.70 103.77 L 304.84 103.73 L 304.99 103.70 L 305.13 103.66 L 305.28 103.63 L 305.42 103.59 L 305.57 103.55 L 305.72 103.52 L 305.86 103.48 L 306.01 103.45 L 306.16 103.41 L 306.31 103.38 L 306.45 103.34 L 306.60 103.31 L 306.75 103.27 L 306.90 103.24 L 307.04 103.20 L 307.19 103.17 L 307.34 103.13 L 307.49 103.10 L 307.64 103.07 L 307.79 103.03 L 307.94 103.00 L 308.09 102.97 L 308.24 102.93 L 308.39 102.90 L 308.54 102.87 L 308.69 102.84 L 308.84 102.80 L 308.99 102.77 L 309.14 102.74 L 309.29 102.71 L 309.44 102.68 L 309.60 102.65 L 309.75 102.62 L 309.90 102.58 L 310.05 102.55 L 310.20 102.52 L 310.36 102.49 L 310.51 102.46 L 310.66 102.43 L 310.82 102.40 L 310.97 102.37 L 311.12 102.34 L 311.28 102.31 L 311.43 102.28 L 311.58 102.26 L 311.74 102.23 L 311.89 102.20 L 312.05 102.17 L 312.20 102.14 L 312.36 102.11 L 312.51 102.08 L 312.67 102.06 L 312.83 102.03 L 312.98 102.00 L 313.14 101.97 L 313.29 101.95 L 313.45 101.92 L 313.61 101.89 L 313.76 101.87 L 313.92 101.84 L 314.08 101.81 L 314.24 101.79 L 314.39 101.76 L 314.55 101.74 L 314.71 101.71 L 314.87 101.69 L 315.03 101.66 L 315.19 101.64 L 315.35 101.61 L 315.51 101.59 L 315.67 101.56 L 315.82 101.54 L 315.98 101.51 L 316.15 101.49 L 316.31 101.47 L 316.47 101.44 L 316.63 101.42 L 316.79 101.40 L 316.95 101.37 L 317.11 101.35 L 317.27 101.33 L 317.43 101.31 L 317.60 101.28 L 317.76 101.26 L 317.92 101.24 L 318.08 101.22 L 318.25 101.20 L 318.41 101.18 L 318.57 101.15 L 318.74 101.13 L 318.90 101.11 L 319.06 101.09 L 319.23 101.07 L 319.39 101.05 L 319.56 101.03 L 319.72 101.01 L 319.89 100.99 L 320.05 100.97 L 320.22 100.95 L 320.38 100.93 L 320.55 100.92 L 320.71 100.90 L 320.88 100.88 L 321.05 100.86 L 321.21 100.84 L 321.38 100.82 L 321.55 100.81 L 321.72 100.79 L 321.88 100.77 L 322.05 100.75 L 322.22 100.74 L 322.39 100.72 L 322.56 100.70 L 322.72 100.69 L 322.89 100.67 L 323.06 100.65 L 323.23 100.64 L 323.40 100.62 L 323.57 100.61 L 323.74 100.59 L 323.91 100.58 L 324.08 100.56 L 324.25 100.55 L 324.42 100.53 L 324.59 100.52 L 324.77 100.50 L 324.94 100.49 L 325.11 100.48 L 325.28 100.46 L 325.45 100.45 L 325.63 100.44 L 325.80 100.42 L 325.97 100.41 L 326.14 100.40 L 326.32 100.39 L 326.49 100.37 L 326.66 100.36 L 326.84 100.35 L 327.01 100.34 L 327.19 100.33 L 327.36 100.32 L 327.54 100.30 L 327.71 100.29 L 327.89 100.28 L 328.06 100.27 L 328.24 100.26 L 328.41 100.25 L 328.59 100.24 L 328.77 100.23 L 328.94 100.22 L 329.12 100.21 L 329.30 100.20 L 329.47 100.20 L 329.65 100.19 L 329.83 100.18 L 330.01 100.17 L 330.19 100.16 L 330.36 100.15 L 330.54 100.15 L 330.72 100.14 L 330.90 100.13 L 331.08 100.12 L 331.26 100.12 L 331.44 100.11 L 331.62 100.10 L 331.80 100.10 L 331.98 100.09 L 332.16 100.09 L 332.34 100.08 L 332.52 100.07 L 332.70 100.07 L 332.89 100.06 L 333.07 100.06 L 333.25 100.05 L 333.43 100.05 L 333.61 100.04 L 333.80 100.04 L 333.98 100.04 L 334.16 100.03 L 334.35 100.03 L 334.53 100.03 L 334.71 100.02 L 334.90 100.02 L 335.08 100.02 L 335.27 100.01 L 335.45 100.01 L 335.64 100.01 L 335.82 100.01 L 336.01 100.01 L 336.19 100.01 L 336.38 100.00 L 336.57 100.00 L 336.75 100.00 L 336.94 100.00 L 337.13 100.00 L 337.31 100.00 L 337.50 100.00 L 337.50 100.00 L 337.50 100.33 L 337.50 100.65 L 337.50 100.98 L 337.51 101.30 L 337.51 101.63 L 337.51 101.95 L 337.52 102.27 L 337.52 102.60 L 337.53 102.92 L 337.54 103.24 L 337.55 103.56 L 337.55 103.88 L 337.56 104.20 L 337.57 104.52 L 337.58 104.84 L 337.59 105.15 L 337.61 105.47 L 337.62 105.79 L 337.63 106.10 L 337.65 106.42 L 337.66 106.73 L 337.68 107.04 L 337.70 107.36 L 337.71 107.67 L 337.73 107.98 L 337.75 108.29 L 337.77 108.60 L 337.79 108.91 L 337.81 109.22 L 337.83 109.53 L 337.85 109.84 L 337.88 110.14 L 337.90 110.45 L 337.92 110.76 L 337.95 111.06 L 337.97 111.37 L 338.00 111.67 L 338.03 111.97 L 338.06 112.28 L 338.08 112.58 L 338.11 112.88 L 338.14 113.18 L 338.17 113.48 L 338.20 113.78 L 338.24 114.08 L 338.27 114.38 L 338.30 114.68 L 338.34 114.97 L 338.37 115.27 L 338.41 115.57 L 338.44 115.86 L 338.48 116.16 L 338.52 116.45 L 338.55 116.74 L 338.59 117.04 L 338.63 117.33 L 338.67 117.62 L 338.71 117.91 L 338.75 118.20 L 338.80 118.49 L 338.84 118.78 L 338.88 119.07 L 338.93 119.36 L 338.97 119.65 L 339.02 119.93 L 339.06 120.22 L 339.11 120.51 L 339.16 120.79 L 339.20 121.08 L 339.25 121.36 L 339.30 121.65 L 339.35 121.93 L 339.40 122.21 L 339.45 122.49 L 339.50 122.77 L 339.56 123.05 L 339.61 123.33 L 339.66 123.61 L 339.72 123.89 L 339.77 124.17 L 339.83 124.45 L 339.88 124.73 L 339.94 125.00 L 340.00 125.28 L 340.06 125.55 L 340.11 125.83 L 340.17 126.10 L 340.23 126.38 L 340.29 126.65 L 340.36 126.92 L 340.42 127.19 L 340.48 127.47 L 340.54 127.74 L 340.61 128.01 L 340.67 128.28 L 340.73 128.55 L 340.80 128.82 L 340.87 129.08 L 340.93 129.35 L 341.00 129.62 L 341.07 129.88 L 341.14 130.15 L 341.21 130.42 L 341.27 130.68 L 341.34 130.94 L 341.42 131.21 L 341.49 131.47 L 341.56 131.73 L 341.63 132.00 L 341.70 132.26 L 341.78 132.52 L 341.85 132.78 L 341.93 133.04 L 342.00 133.30 L 342.08 133.56 L 342.16 133.82 L 342.23 134.07 L 342.31 134.33 L 342.39 134.59 L 342.47 134.84 L 342.55 135.10 L 342.63 135.35 L 342.71 135.61 L 342.79 135.86 L 342.87 136.12 L 342.95 136.37 L 343.04 136.62 L 343.12 136.87 L 343.20 137.12 L 343.29 137.37 L 343.37 137.62 L 343.46 137.87 L 343.55 138.12 L 343.63 138.37 L 343.72 138.62 L 343.81 138.87 L 343.90 139.11 L 343.98 139.36 L 344.07 139.61 L 344.16 139.85 L 344.25 140.10 L 344.35 140.34 L 344.44 140.59 L 344.53 140.83 L 344.62 141.07 L 344.72 141.31 L 344.81 141.56 L 344.90 141.80 L 345.00 142.04 L 345.09 142.28 L 345.19 142.52 L 345.29 142.76 L 345.38 143.00 L 345.48 143.24 L 345.58 143.47 L 345.68 143.71 L 345.78 143.95 L 345.88 144.18 L 345.98 144.42 L 346.08 144.66 L 346.18 144.89 L 346.28 145.12 L 346.38 145.36 L 346.48 145.59 L 346.59 145.83 L 346.69 146.06 L 346.79 146.29 L 346.90 146.52 L 347.00 146.75 L 347.11 146.98 L 347.22 147.21 L 347.32 147.44 L 347.43 147.67 L 347.54 147.90 L 347.64 148.13 L 347.75 148.35 L 347.86 148.58 L 347.97 148.81 L 348.08 149.03 L 348.19 149.26 L 348.30 149.48 L 348.41 149.71 L 348.53 149.93 L 348.64 150.16 L 348.75 150.38 L 348.86 150.60 L 348.98 150.83 L 349.09 151.05 L 349.21 151.27 L 349.32 151.49 L 349.44 151.71 L 349.55 151.93 L 349.67 152.15 L 349.79 152.37 L 349.91 152.59 L 350.02 152.81 L 350.14 153.02 L 350.26 153.24 L 350.38 153.46 L 350.50 153.67 L 350.62 153.89 L 350.74 154.10 L 350.86 154.32 L 350.98 154.53 L 351.11 154.75 L 351.23 154.96 L 351.35 155.17 L 351.47 155.39 L 351.60 155.60 L 351.72 155.81 L 351.85 156.02 L 351.97 156.23 L 352.10 156.44 L 352.22 156.65 L 352.35 156.86 L 352.48 157.07 L 352.60 157.28 L 352.73 157.49 L 352.86 157.70 L 352.99 157.90 L 353.12 158.11 L 353.25 158.32 L 353.38 158.52 L 353.51 158.73 L 353.64 158.93 L 353.77 159.14 L 353.90 159.34 L 354.03 159.54 L 354.16 159.75 L 354.30 159.95 L 354.43 160.15 L 354.56 160.36 L 354.70 160.56 L 354.83 160.76 L 354.96 160.96 L 355.10 161.16 L 355.24 161.36 L 355.37 161.56 L 355.51 161.76 L 355.64 161.96 L 355.78 162.15 L 355.92 162.35 L 356.06 162.55 L 356.19 162.75 L 356.33 162.94 L 356.47 163.14 L 356.61 163.34 L 356.75 163.53 L 356.89 163.73 L 357.03 163.92 L 357.17 164.11 L 357.31 164.31 L 357.45 164.50 L 357.60 164.69 L 357.74 164.89 L 357.88 165.08 L 358.02 165.27 L 358.17 165.46 L 358.31 165.65 L 358.46 165.84 L 358.60 166.03 L 358.75 166.22 L 358.89 166.41 L 359.04 166.60 L 359.18 166.79 L 359.33 166.98 L 359.47 167.17 L 359.62 167.35 L 359.77 167.54 L 359.92 167.73 L 360.06 167.91 L 360.21 168.10 L 360.36 168.28 L 360.51 168.47 L 360.66 168.65 L 360.81 168.84 L 360.96 169.02 L 361.11 169.20 L 361.26 169.39 L 361.41 169.57 L 361.56 169.75 L 361.72 169.93 L 361.87 170.12 L 362.02 170.30 L 362.17 170.48 L 362.33 170.66 L 362.48 170.84 L 362.63 171.02 L 362.79 171.20 L 362.94 171.38 L 363.09 171.55 L 363.25 171.73 L 363.40 171.91 L 363.56 172.09 L 363.72 172.27 L 363.87 172.44 L 364.03 172.62 L 364.19 172.79 L 364.34 172.97 L 364.50 173.15 L 364.66 173.32 L 364.82 173.49 L 364.97 173.67 L 365.13 173.84 L 365.29 174.02 L 365.45 174.19 L 365.61 174.36 L 365.77 174.53 L 365.93 174.71 L 366.09 174.88 L 366.25 175.05 L 366.41 175.22 L 366.57 175.39 L 366.73 175.56 L 366.90 175.73 L 367.06 175.90 L 367.22 176.07 L 367.38 176.24 L 367.54 176.41 L 367.71 176.58 L 367.87 176.74 L 368.03 176.91 L 368.20 177.08 L 368.36 177.25 L 368.53 177.41 L 368.69 177.58 L 368.86 177.74 L 369.02 177.91 L 369.19 178.08 L 369.35 178.24 L 369.52 178.41 L 369.69 178.57 L 369.85 178.73 L 370.02 178.90 L 370.19 179.06 L 370.35 179.22 L 370.52 179.39 L 370.69 179.55 L 370.86 179.71 L 371.02 179.87 L 371.19 180.03 L 371.36 180.19 L 371.53 180.35 L 371.70 180.51 L 371.87 180.67 L 372.04 180.83 L 372.21 180.99 L 372.38 181.15 L 372.55 181.31 L 372.72 181.47 L 372.89 181.63 L 373.06 181.79 L 373.23 181.94 L 373.40 182.10 L 373.57 182.26 L 373.75 182.41 L 373.92 182.57 L 374.09 182.73 L 374.26 182.88 L 374.44 183.04 L 374.61 183.19 L 374.78 183.35 L 374.96 183.50 L 375.13 183.66 L 375.30 183.81 L 375.48 183.96 L 375.65 184.12 L 375.82 184.27 L 376.00 184.42 L 376.17 184.58 L 376.35 184.73 L 376.52 184.88 L 376.70 185.03 L 376.88 185.18 L 377.05 185.33 L 377.23 185.48 L 377.40 185.63 L 377.58 185.79 L 377.76 185.93 L 377.93 186.08 L 378.11 186.23 L 378.29 186.38 L 378.46 186.53 L 378.64 186.68 L 378.82 186.83 L 379.00 186.98 L 379.17 187.12 L 379.35 187.27 L 379.53 187.42 L 379.71 187.56 L 379.89 187.71 L 380.06 187.86 L 380.24 188.00 L 380.42 188.15 L 380.60 188.29 L 380.78 188.44 L 380.96 188.58 L 381.14 188.73 L 381.32 188.87 L 381.50 189.02 L 381.68 189.16 L 381.86 189.31 L 382.04 189.45 L 382.22 189.59 L 382.40 189.73 L 382.58 189.88 L 382.76 190.02 L 382.94 190.16 L 383.13 190.30 L 383.31 190.45 L 383.49 190.59 L 383.67 190.73 L 383.85 190.87 L 384.03 191.01 L 384.22 191.15 L 384.40 191.29 L 384.58 191.43 L 384.76 191.57 L 384.95 191.71 L 385.13 191.85 L 385.31 191.99 L 385.49 192.12 L 385.68 192.26 L 385.86 192.40 L 386.04 192.54 L 386.23 192.68 L 386.41 192.81 L 386.59 192.95 L 386.78 193.09 L 386.96 193.22 L 387.14 193.36 L 387.33 193.50 L 387.51 193.63 L 387.70 193.77 L 387.88 193.90 L 388.07 194.04 L 388.25 194.18 L 388.43 194.31 L 388.62 194.44 L 388.80 194.58 L 388.99 194.71 L 389.17 194.85 L 389.36 194.98 L 389.54 195.11 L 389.73 195.25 L 389.91 195.38 L 390.10 195.51 L 390.29 195.65 L 390.47 195.78 L 390.66 195.91 L 390.84 196.04 L 391.03 196.18 L 391.21 196.31 L 391.40 196.44 L 391.59 196.57 L 391.77 196.70 L 391.96 196.83 L 392.14 196.96 L 392.33 197.09 L 392.52 197.22 L 392.70 197.35 L 392.89 197.48 L 393.08 197.61 L 393.26 197.74 L 393.45 197.87 L 393.63 198.00 L 393.82 198.13 L 394.01 198.26 L 394.19 198.38 L 394.38 198.51 L 394.57 198.64 L 394.76 198.77 L 394.94 198.90 L 395.13 199.02 L 395.32 199.15 L 395.50 199.28 L 395.69 199.40 L 395.88 199.53 L 396.06 199.66 L 396.25 199.78 L 396.44 199.91 L 396.63 200.04 L 396.81 200.16 L 397.00 200.29 L 397.19 200.41 L 397.38 200.54 L 397.56 200.66 L 397.75 200.79 L 397.94 200.91 L 398.13 201.04 L 398.31 201.16 L 398.50 201.29 L 398.69 201.41 L 398.88 201.53 L 399.06 201.66 L 399.25 201.78 L 399.44 201.90 L 399.63 202.03 L 399.81 202.15 L 400.00 202.27 L 400.19 202.40 L 400.37 202.52 L 400.56 202.64 L 400.75 202.76 L 400.94 202.88 L 401.12 203.01 L 401.31 203.13 L 401.50 203.25 L 401.69 203.37 L 401.87 203.49 L 402.06 203.61 L 402.25 203.73 L 402.44 203.85 L 402.62 203.98 L 402.81 204.10 L 403.00 204.22 L 403.19 204.34 L 403.37 204.46 L 403.56 204.58 L 403.75 204.70 L 403.94 204.82 L 404.12 204.93 L 404.31 205.05 L 404.50 205.17 L 404.68 205.29 L 404.87 205.41 L 405.06 205.53 L 405.24 205.65 L 405.43 205.77 L 405.62 205.89 L 405.81 206.00 L 405.99 206.12 L 406.18 206.24 L 406.37 206.36 L 406.55 206.47 L 406.74 206.59 L 406.92 206.71 L 407.11 206.83 L 407.30 206.94 L 407.48 207.06 L 407.67 207.18 L 407.86 207.30 L 408.04 207.41 L 408.23 207.53 L 408.41 207.64 L 408.60 207.76 L 408.79 207.88 L 408.97 207.99 L 409.16 208.11 L 409.34 208.22 L 409.53 208.34 L 409.71 208.46 L 409.90 208.57 L 410.09 208.69 L 410.27 208.80 L 410.46 208.92 L 410.64 209.03 L 410.83 209.15 L 411.01 209.26 L 411.20 209.38 L 411.38 209.49 L 411.57 209.61 L 411.75 209.72 L 411.93 209.84 L 412.12 209.95 L 412.30 210.06 L 412.49 210.18 L 412.67 210.29 L 412.86 210.41 L 413.04 210.52 L 413.22 210.63 L 413.41 210.75 L 413.59 210.86 L 413.77 210.97 L 413.96 211.09 L 414.14 211.20 L 414.32 211.31 L 414.51 211.43 L 414.69 211.54 L 414.87 211.65 L 415.05 211.76 L 415.24 211.88 L 415.42 211.99 L 415.60 212.10 L 415.78 212.21 L 415.97 212.33 L 416.15 212.44 L 416.33 212.55 L 416.51 212.66 L 416.69 212.77 L 416.87 212.89 L 417.06 213.00 L 417.24 213.11 L 417.42 213.22 L 417.60 213.33 L 417.78 213.45 L 417.96 213.56 L 418.14 213.67 L 418.32 213.78 L 418.50 213.89 L 418.68 214.00 L 418.86 214.11 L 419.04 214.22 L 419.22 214.34 L 419.40 214.45 L 419.58 214.56 L 419.76 214.67 L 419.94 214.78 L 420.11 214.89 L 420.29 215.00 L 420.47 215.11 L 420.65 215.22 L 420.83 215.33 L 421.00 215.44 L 421.18 215.55 L 421.36 215.66 L 421.54 215.77 L 421.71 215.88 L 421.89 215.99 L 422.07 216.10 L 422.24 216.21 L 422.42 216.32 L 422.60 216.43 L 422.77 216.54 L 422.95 216.65 L 423.12 216.76 L 423.30 216.87 L 423.48 216.98 L 423.65 217.09 L 423.83 217.20 L 424.00 217.31 L 424.18 217.42 L 424.35 217.53 L 424.52 217.64 L 424.70 217.75 L 424.87 217.86 L 425.04 217.97 L 425.22 218.08 L 425.39 218.19 L 425.56 218.30 L 425.74 218.41 L 425.91 218.52 L 426.08 218.63 L 426.25 218.74 L 426.43 218.85 L 426.60 218.96 L 426.77 219.07 L 426.94 219.17 L 427.11 219.28 L 427.28 219.39 L 427.45 219.50 L 427.62 219.61 L 427.79 219.72 L 427.96 219.83 L 428.13 219.94 L 428.30 220.05 L 428.47 220.16 L 428.64 220.27 L 428.81 220.38 L 428.98 220.48 L 429.14 220.59 L 429.31 220.70 L 429.48 220.81 L 429.65 220.92 L 429.81 221.03 L 429.98 221.14 L 430.15 221.25 L 430.31 221.36 L 430.48 221.47 L 430.65 221.58 L 430.81 221.68 L 430.98 221.79 L 431.14 221.90 L 431.31 222.01 L 431.47 222.12 L 431.64 222.23 L 431.80 222.34 L 431.97 222.45 L 432.13 222.56 L 432.29 222.67 L 432.46 222.78 L 432.62 222.89 L 432.78 222.99 L 432.94 223.10 L 433.10 223.21 L 433.27 223.32 L 433.43 223.43 L 433.59 223.54 L 433.75 223.65 L 433.91 223.76 L 434.07 223.87 L 434.23 223.98 L 434.39 224.09 L 434.55 224.20 L 434.71 224.31 L 434.87 224.42 L 435.03 224.53 L 435.18 224.64 L 435.34 224.74 L 435.50 224.85 L 435.66 224.96 L 435.81 225.07 L 435.97 225.18 L 436.13 225.29 L 436.28 225.40 L 436.44 225.51 L 436.60 225.62 L 436.75 225.73 L 436.91 225.84 L 437.06 225.95 L 437.21 226.06 L 437.37 226.17 L 437.52 226.28 L 437.67 226.39 L 437.83 226.50 L 437.98 226.61 L 438.13 226.72 L 438.28 226.83 L 438.44 226.94 L 438.59 227.06 L 438.74 227.17 L 438.89 227.28 L 439.04 227.39 L 439.19 227.50 L 439.34 227.61 L 439.49 227.72 L 439.64 227.83 L 439.79 227.94 L 439.94 228.05 L 440.08 228.16 L 440.23 228.27 L 440.38 228.39 L 440.53 228.50 L 440.67 228.61 L 440.82 228.72 L 440.96 228.83 L 441.11 228.94 L 441.25 229.05 L 441.40 229.16 L 441.54 229.28 L 441.69 229.39 L 441.83 229.50 L 441.98 229.61 L 442.12 229.72 L 442.26 229.84 L 442.40 229.95 L 442.55 230.06 L 442.69 230.17 L 442.83 230.29 L 442.97 230.40 L 443.11 230.51 L 443.25 230.62 L 443.39 230.74 L 443.53 230.85 L 443.67 230.96 L 443.81 231.07 L 443.94 231.19 L 444.08 231.30 L 444.22 231.41 L 444.36 231.53 L 444.49 231.64 L 444.63 231.75 L 444.76 231.87 L 444.90 231.98 L 445.04 232.09 L 445.17 232.21 L 445.30 232.32 L 445.44 232.44 L 445.57 232.55 L 445.70 232.67 L 445.84 232.78 L 445.97 232.89 L 446.10 233.01 L 446.23 233.12 L 446.36 233.24 L 446.49 233.35 L 446.62 233.47 L 446.75 233.58 L 446.88 233.70 L 447.01 233.81 L 447.14 233.93 L 447.27 234.04 L 447.40 234.16 L 447.52 234.28 L 447.65 234.39 L 447.78 234.51 L 447.90 234.62 L 448.03 234.74 L 448.15 234.86 L 448.28 234.97 L 448.40 235.09 L 448.53 235.21 L 448.65 235.32 L 448.77 235.44 L 448.89 235.56 L 449.02 235.68 L 449.14 235.79 L 449.26 235.91 L 449.38 236.03 L 449.50 236.15 L 449.62 236.26 L 449.74 236.38 L 449.86 236.50 L 449.98 236.62 L 450.09 236.74 L 450.21 236.85 L 450.33 236.97 L 450.45 237.09 L 450.56 237.21 L 450.68 237.33 L 450.79 237.45 L 450.91 237.57 L 451.02 237.69 L 451.14 237.81 L 451.25 237.93 L 451.36 238.05 L 451.47 238.17 L 451.59 238.29 L 451.70 238.41 L 451.81 238.53 L 451.92 238.65 L 452.03 238.77 L 452.14 238.89 L 452.25 239.01 L 452.36 239.13 L 452.46 239.26 L 452.57 239.38 L 452.68 239.50 L 452.78 239.62 L 452.89 239.74 L 453.00 239.87 L 453.10 239.99 L 453.21 240.11 L 453.31 240.23 L 453.41 240.36 L 453.52 240.48 L 453.62 240.60 L 453.72 240.73 L 453.82 240.85 L 453.92 240.97 L 454.02 241.10 L 454.12 241.22 L 454.22 241.35 L 454.32 241.47 L 454.42 241.59 L 454.52 241.72 L 454.62 241.84 L 454.71 241.97 L 454.81 242.09 L 454.91 242.22 L 455.00 242.35 L 455.10 242.47 L 455.19 242.60 L 455.28 242.72 L 455.38 242.85 L 455.47 242.98 L 455.56 243.10 L 455.65 243.23 L 455.75 243.36 L 455.84 243.49 L 455.93 243.61 L 456.02 243.74 L 456.10 243.87 L 456.19 244.00 L 456.28 244.13 L 456.37 244.25 L 456.45 244.38 L 456.54 244.51 L 456.63 244.64 L 456.71 244.77 L 456.80 244.90 L 456.88 245.03 L 456.96 245.16 L 457.05 245.29 L 457.13 245.42 L 457.21 245.55 L 457.29 245.68 L 457.37 245.81 L 457.45 245.94 L 457.53 246.07 L 457.61 246.21 L 457.69 246.34 L 457.77 246.47 L 457.84 246.60 L 457.92 246.73 L 458.00 246.87 L 458.07 247.00 L 458.15 247.13 L 458.22 247.27 L 458.30 247.40 L 458.37 247.53 L 458.44 247.67 L 458.51 247.80 L 458.58 247.93 L 458.66 248.07 L 458.73 248.20 L 458.79 248.34 L 458.86 248.47 L 458.93 248.61 L 459.00 248.75 L 459.07 248.88 L 459.13 249.02 L 459.20 249.15 L 459.27 249.29 L 459.33 249.43 L 459.39 249.56 L 459.46 249.70 L 459.52 249.84 L 459.58 249.98 L 459.64 250.12 L 459.71 250.25 L 459.77 250.39 L 459.83 250.53 L 459.89 250.67 L 459.94 250.81 L 460.00 250.95 L 460.06 251.09 L 460.12 251.23 L 460.17 251.37 L 460.23 251.51 L 460.28 251.65 L 460.34 251.79 L 460.39 251.93 L 460.44 252.07 L 460.50 252.22 L 460.55 252.36 L 460.60 252.50 L 460.65 252.64 L 460.70 252.78 L 460.75 252.93 L 460.80 253.07 L 460.84 253.21 L 460.89 253.36 L 460.94 253.50 L 460.98 253.65 L 461.03 253.79 L 461.07 253.94 L 461.12 254.08 L 461.16 254.23 L 461.20 254.37 L 461.25 254.52 L 461.29 254.66 L 461.33 254.81 L 461.37 254.96 L 461.41 255.10 L 461.45 255.25 L 461.48 255.40 L 461.52 255.55 L 461.56 255.69 L 461.59 255.84 L 461.63 255.99 L 461.66 256.14 L 461.70 256.29 L 461.73 256.44 L 461.76 256.59 L 461.80 256.74 L 461.83 256.89 L 461.86 257.04 L 461.89 257.19 L 461.92 257.34 L 461.94 257.49 L 461.97 257.65 L 462.00 257.80 L 462.03 257.95 L 462.05 258.10 L 462.08 258.26 L 462.10 258.41 L 462.12 258.56 L 462.15 258.72 L 462.17 258.87 L 462.19 259.02 L 462.21 259.18 L 462.23 259.33 L 462.25 259.49 L 462.27 259.65 L 462.29 259.80 L 462.30 259.96 L 462.32 260.11 L 462.34 260.27 L 462.35 260.43 L 462.37 260.59 L 462.38 260.74 L 462.39 260.90 L 462.41 261.06 L 462.42 261.22 L 462.43 261.38 L 462.44 261.54 L 462.45 261.70 L 462.45 261.86 L 462.46 262.02 L 462.47 262.18 L 462.48 262.34 L 462.48 262.50 L 462.49 262.66 L 462.49 262.82 L 462.49 262.98 L 462.50 263.15 L 462.50 263.31 L 462.50 263.47 L 462.50 263.64 L 462.50 263.64 L 462.50 263.80 L 462.50 263.96 L 462.50 264.13 L 462.51 264.29 L 462.51 264.46 L 462.51 264.62 L 462.52 264.79 L 462.52 264.95 L 462.53 265.12 L 462.54 265.28 L 462.55 265.45 L 462.55 265.61 L 462.56 265.78 L 462.57 265.94 L 462.58 266.11 L 462.60 266.27 L 462.61 266.44 L 462.62 266.61 L 462.63 266.77 L 462.65 266.94 L 462.66 267.11 L 462.68 267.27 L 462.70 267.44 L 462.71 267.61 L 462.73 267.77 L 462.75 267.94 L 462.77 268.11 L 462.79 268.28 L 462.81 268.44 L 462.83 268.61 L 462.85 268.78 L 462.88 268.95 L 462.90 269.12 L 462.93 269.28 L 462.95 269.45 L 462.98 269.62 L 463.00 269.79 L 463.03 269.96 L 463.06 270.13 L 463.09 270.30 L 463.12 270.47 L 463.15 270.64 L 463.18 270.80 L 463.21 270.97 L 463.24 271.14 L 463.28 271.31 L 463.31 271.48 L 463.34 271.65 L 463.38 271.82 L 463.41 271.99 L 463.45 272.16 L 463.49 272.33 L 463.53 272.50 L 463.56 272.67 L 463.60 272.84 L 463.64 273.01 L 463.68 273.18 L 463.72 273.35 L 463.77 273.53 L 463.81 273.70 L 463.85 273.87 L 463.90 274.04 L 463.94 274.21 L 463.99 274.38 L 464.03 274.55 L 464.08 274.72 L 464.13 274.89 L 464.18 275.06 L 464.22 275.24 L 464.27 275.41 L 464.32 275.58 L 464.37 275.75 L 464.43 275.92 L 464.48 276.09 L 464.53 276.27 L 464.58 276.44 L 464.64 276.61 L 464.69 276.78 L 464.75 276.95 L 464.80 277.13 L 464.86 277.30 L 464.92 277.47 L 464.98 277.64 L 465.03 277.81 L 465.09 277.99 L 465.15 278.16 L 465.21 278.33 L 465.28 278.50 L 465.34 278.68 L 465.40 278.85 L 465.46 279.02 L 465.53 279.19 L 465.59 279.36 L 465.66 279.54 L 465.72 279.71 L 465.79 279.88 L 465.86 280.05 L 465.93 280.23 L 465.99 280.40 L 466.06 280.57 L 466.13 280.75 L 466.20 280.92 L 466.27 281.09 L 466.35 281.26 L 466.42 281.44 L 466.49 281.61 L 466.56 281.78 L 466.64 281.95 L 466.71 282.13 L 466.79 282.30 L 466.86 282.47 L 466.94 282.65 L 467.02 282.82 L 467.10 282.99 L 467.17 283.16 L 467.25 283.34 L 467.33 283.51 L 467.41 283.68 L 467.49 283.85 L 467.58 284.03 L 467.66 284.20 L 467.74 284.37 L 467.82 284.54 L 467.91 284.72 L 467.99 284.89 L 468.08 285.06 L 468.16 285.24 L 468.25 285.41 L 468.34 285.58 L 468.43 285.75 L 468.51 285.93 L 468.60 286.10 L 468.69 286.27 L 468.78 286.44 L 468.87 286.61 L 468.96 286.79 L 469.06 286.96 L 469.15 287.13 L 469.24 287.30 L 469.34 287.48 L 469.43 287.65 L 469.52 287.82 L 469.62 287.99 L 469.72 288.16 L 469.81 288.34 L 469.91 288.51 L 470.01 288.68 L 470.11 288.85 L 470.21 289.02 L 470.30 289.19 L 470.40 289.37 L 470.51 289.54 L 470.61 289.71 L 470.71 289.88 L 470.81 290.05 L 470.91 290.22 L 471.02 290.39 L 471.12 290.57 L 471.23 290.74 L 471.33 290.91 L 471.44 291.08 L 471.54 291.25 L 471.65 291.42 L 471.76 291.59 L 471.87 291.76 L 471.98 291.93 L 472.09 292.10 L 472.19 292.27 L 472.31 292.44 L 472.42 292.61 L 472.53 292.78 L 472.64 292.95 L 472.75 293.12 L 472.87 293.29 L 472.98 293.46 L 473.09 293.63 L 473.21 293.80 L 473.32 293.97 L 473.44 294.14 L 473.56 294.31 L 473.67 294.48 L 473.79 294.65 L 473.91 294.82 L 474.03 294.99 L 474.15 295.16 L 474.27 295.32 L 474.39 295.49 L 474.51 295.66 L 474.63 295.83 L 474.75 296.00 L 474.87 296.17 L 475.00 296.33 L 475.12 296.50 L 475.24 296.67 L 475.37 296.84 L 475.49 297.00 L 475.62 297.17 L 475.75 297.34 L 475.87 297.51 L 476.00 297.67 L 476.13 297.84 L 476.26 298.01 L 476.38 298.17 L 476.51 298.34 L 476.64 298.51 L 476.77 298.67 L 476.91 298.84 L 477.04 299.00 L 477.17 299.17 L 477.30 299.34 L 477.43 299.50 L 477.57 299.67 L 477.70 299.83 L 477.84 300.00 L 477.97 300.16 L 478.11 300.33 L 478.24 300.49 L 478.38 300.65 L 478.52 300.82 L 478.65 300.98 L 478.79 301.15 L 478.93 301.31 L 479.07 301.47 L 479.21 301.64 L 479.35 301.80 L 479.49 301.96 L 479.63 302.13 L 479.77 302.29 L 479.91 302.45 L 480.06 302.61 L 480.20 302.78 L 480.34 302.94 L 480.49 303.10 L 480.63 303.26 L 480.78 303.42 L 480.92 303.59 L 481.07 303.75 L 481.21 303.91 L 481.36 304.07 L 481.51 304.23 L 481.66 304.39 L 481.80 304.55 L 481.95 304.71 L 482.10 304.87 L 482.25 305.03 L 482.40 305.19 L 482.55 305.35 L 482.70 305.51 L 482.86 305.67 L 483.01 305.82 L 483.16 305.98 L 483.31 306.14 L 483.47 306.30 L 483.62 306.46 L 483.78 306.61 L 483.93 306.77 L 484.09 306.93 L 484.24 307.09 L 484.40 307.24 L 484.55 307.40 L 484.71 307.55 L 484.87 307.71 L 485.03 307.87 L 485.19 308.02 L 485.35 308.18 L 485.50 308.33 L 485.66 308.49 L 485.82 308.64 L 485.99 308.80 L 486.15 308.95 L 486.31 309.11 L 486.47 309.26 L 486.63 309.41 L 486.80 309.57 L 486.96 309.72 L 487.12 309.87 L 487.29 310.02 L 487.45 310.18 L 487.62 310.33 L 487.78 310.48 L 487.95 310.63 L 488.12 310.78 L 488.28 310.93 L 488.45 311.09 L 488.62 311.24 L 488.79 311.39 L 488.96 311.54 L 489.13 311.69 L 489.29 311.84 L 489.46 311.99 L 489.63 312.13 L 489.81 312.28 L 489.98 312.43 L 490.15 312.58 L 490.32 312.73 L 490.49 312.88 L 490.67 313.02 L 490.84 313.17 L 491.01 313.32 L 491.19 313.46 L 491.36 313.61 L 491.54 313.76 L 491.71 313.90 L 491.89 314.05 L 492.06 314.19 L 492.24 314.34 L 492.42 314.48 L 492.60 314.63 L 492.77 314.77 L 492.95 314.91 L 493.13 315.06 L 493.31 315.20 L 493.49 315.34 L 493.67 315.49 L 493.85 315.63 L 494.03 315.77 L 494.21 315.91 L 494.39 316.05 L 494.57 316.19 L 494.76 316.34 L 494.94 316.48 L 495.12 316.62 L 495.30 316.76 L 495.49 316.90 L 495.67 317.03 L 495.86 317.17 L 496.04 317.31 L 496.23 317.45 L 496.41 317.59 L 496.60 317.73 L 496.79 317.86 L 496.97 318.00 L 497.16 318.14 L 497.35 318.27 L 497.54 318.41 L 497.72 318.54 L 497.91 318.68 L 498.10 318.81 L 498.29 318.95 L 498.48 319.08 L 498.67 319.22 L 498.86 319.35 L 499.05 319.48 L 499.24 319.62 L 499.43 319.75 L 499.63 319.88 L 499.82 320.01 L 500.01 320.15 L 500.21 320.28 L 500.40 320.41 L 500.59 320.54 L 500.79 320.67 L 500.98 320.80 L 501.18 320.93 L 501.37 321.06 L 501.57 321.19 L 501.76 321.31 L 501.96 321.44 L 502.16 321.57 L 502.35 321.70 L 502.55 321.82 L 502.75 321.95 L 502.94 322.08 L 503.14 322.20 L 503.34 322.33 L 503.54 322.45 L 503.74 322.58 L 503.94 322.70 L 504.14 322.83 L 504.34 322.95 L 504.54 323.07 L 504.74 323.20 L 504.94 323.32 L 505.14 323.44 L 505.35 323.56 L 505.55 323.68 L 505.75 323.80 L 505.95 323.92 L 506.16 324.04 L 506.36 324.16 L 506.57 324.28 L 506.77 324.40 L 506.97 324.52 L 507.18 324.64 L 507.38 324.76 L 507.59 324.87 L 507.80 324.99 L 508.00 325.11 L 508.21 325.22 L 508.42 325.34 L 508.62 325.45 L 508.83 325.57 L 509.04 325.68 L 509.25 325.80 L 509.45 325.91 L 509.66 326.02 L 509.87 326.14 L 510.08 326.25 L 510.29 326.36 L 510.50 326.47 L 510.71 326.58 L 510.92 326.69 L 511.13 326.80 L 511.34 326.91 L 511.55 327.02 L 511.77 327.13 L 511.98 327.24 L 512.19 327.35 L 512.40 327.46 L 512.61 327.56 L 512.83 327.67 L 513.04 327.78 L 513.25 327.88 L 513.47 327.99 L 513.68 328.09 L 513.90 328.20 L 514.11 328.30 L 514.33 328.41 L 514.54 328.51 L 514.76 328.61 L 514.97 328.71 L 515.19 328.82 L 515.41 328.92 L 515.62 329.02 L 515.84 329.12 L 516.06 329.22 L 516.28 329.32 L 516.49 329.42 L 516.71 329.51 L 516.93 329.61 L 517.15 329.71 L 517.37 329.81 L 517.59 329.90 L 517.81 330.00 L 518.03 330.10 L 518.25 330.19 L 518.47 330.29 L 518.69 330.38 L 518.91 330.47 L 519.13 330.57 L 519.35 330.66 L 519.57 330.75 L 519.79 330.84 L 520.01 330.94 L 520.24 331.03 L 520.46 331.12 L 520.68 331.21 L 520.90 331.30 L 521.13 331.39 L 521.35 331.47 L 521.58 331.56 L 521.80 331.65 L 522.02 331.74 L 522.25 331.82 L 522.47 331.91 L 522.70 331.99 L 522.92 332.08 L 523.15 332.16 L 523.37 332.25 L 523.60 332.33 L 523.83 332.41 L 524.05 332.50 L 524.28 332.58 L 524.51 332.66 L 524.73 332.74 L 524.96 332.82 L 525.19 332.90 L 525.41 332.98 L 525.64 333.06 L 525.87 333.14 L 526.10 333.21 L 526.33 333.29 L 526.56 333.37 L 526.79 333.44 L 527.01 333.52 L 527.24 333.59 L 527.47 333.67 L 527.70 333.74 L 527.93 333.81 L 528.16 333.89 L 528.39 333.96 L 528.63 334.03 L 528.86 334.10 L 529.09 334.17 L 529.32 334.24 L 529.55 334.31 L 529.78 334.38 L 530.01 334.45 L 530.25 334.52 L 530.48 334.59 L 530.71 334.65 L 530.94 334.72 L 531.18 334.78 L 531.41 334.85 L 531.64 334.91 L 531.88 334.98 L 532.11 335.04 L 532.34 335.10 L 532.58 335.17 L 532.81 335.23 L 533.05 335.29 L 533.28 335.35 L 533.52 335.41 L 533.75 335.47 L 533.99 335.53 L 534.22 335.59 L 534.46 335.64 L 534.69 335.70 L 534.93 335.76 L 535.17 335.81 L 535.40 335.87 L 535.64 335.92 L 535.87 335.98 L 536.11 336.03 L 536.35 336.08 L 536.59 336.13 L 536.82 336.19 L 537.06 336.24 L 537.30 336.29 L 537.54 336.34 L 537.77 336.39 L 538.01 336.44 L 538.25 336.48 L 538.49 336.53 L 538.73 336.58 L 538.97 336.62 L 539.21 336.67 L 539.44 336.72 L 539.68 336.76 L 539.92 336.80 L 540.16 336.85 L 540.40 336.89 L 540.64 336.93 L 540.88 336.97 L 541.12 337.01 L 541.36 337.05 L 541.60 337.09 L 541.84 337.13 L 542.08 337.17 L 542.33 337.21 L 542.57 337.24 L 542.81 337.28 L 543.05 337.32 L 543.29 337.35 L 543.53 337.39 L 543.77 337.42 L 544.02 337.45 L 544.26 337.49 L 544.50 337.52 L 544.74 337.55 L 544.98 337.58 L 545.23 337.61 L 545.47 337.64 L 545.71 337.67 L 545.96 337.70 L 546.20 337.72 L 546.44 337.75 L 546.69 337.78 L 546.93 337.80 L 547.17 337.83 L 547.42 337.85 L 547.66 337.87 L 547.90 337.90 L 548.15 337.92 L 548.39 337.94 L 548.64 337.96 L 548.88 337.98 L 549.12 338.00 L 549.37 338.02 L 549.61 338.04 L 549.86 338.05 L 550.10 338.07 L 550.35 338.09 L 550.59 338.10 L 550.84 338.12 L 551.08 338.13 L 551.33 338.14 L 551.58 338.15 L 551.82 338.17 L 552.07 338.18 L 552.31 338.19 L 552.56 338.20 L 552.80 338.21 L 553.05 338.22 L 553.30 338.22 L 553.54 338.23 L 553.79 338.24 L 554.04 338.24 L 554.28 338.25 L 554.53 338.25 L 554.78 338.26 L 555.02 338.26 L 555.27 338.26 L 555.52 338.26 L 555.76 338.26 L 556.01 338.26 L 556.26 338.26 L 556.51 338.26 L 556.75 338.26 L 557.00 338.25 L 557.25 338.25 L 557.50 338.25 L 557.74 338.24 L 557.99 338.24 L 558.24 338.23 L 558.49 338.22 L 558.73 338.21 L 558.98 338.21 L 559.23 338.20 L 559.48 338.19 L 559.73 338.17 L 559.98 338.16 L 560.22 338.15 L 560.47 338.14 L 560.72 338.12 L 560.97 338.11 L 561.22 338.09 L 561.47 338.08 L 561.71 338.06 L 561.96 338.04 L 562.21 338.02 L 562.46 338.01 L 562.71 337.99 L 562.96 337.97 L 563.21 337.94 L 563.46 337.92 L 563.71 337.90 L 563.96 337.88 L 564.20 337.85 L 564.45 337.83 L 564.70 337.80 L 564.95 337.77 L 565.20 337.75 L 565.45 337.72 L 565.70 337.69 L 565.95 337.66 L 566.20 337.63 L 566.45 337.60 L 566.70 337.56 L 566.95 337.53 L 567.20 337.50 L 567.45 337.46 L 567.70 337.43 L 567.95 337.39 L 568.20 337.36 L 568.45 337.32 L 568.70 337.28 L 568.95 337.24 L 569.20 337.20 L 569.45 337.16 L 569.70 337.12 L 569.95 337.08 L 570.19 337.03 L 570.44 336.99 L 570.69 336.94 L 570.94 336.90 L 571.19 336.85 L 571.44 336.81 L 571.69 336.76 L 571.94 336.71 L 572.19 336.66 L 572.44 336.61 L 572.69 336.56 L 572.94 336.51 L 573.19 336.45 L 573.44 336.40 L 573.69 336.35 L 573.94 336.29 L 574.19 336.23 L 574.44 336.18 L 574.69 336.12 L 574.94 336.06 L 575.19 336.00 L 575.44 335.94 L 575.69 335.88 L 575.94 335.82 L 576.19 335.76 L 576.44 335.69 L 576.69 335.63 L 576.94 335.56 L 577.19 335.50 L 577.44 335.43 L 577.69 335.36 L 577.94 335.29 L 578.19 335.22 L 578.44 335.15 L 578.69 335.08 L 578.94 335.01 L 579.19 334.94 L 579.44 334.87 L 579.69 334.79 L 579.94 334.72 L 580.19 334.64 L 580.44 334.56 L 580.69 334.48 L 580.94 334.41 L 581.19 334.33 L 581.44 334.25 L 581.69 334.16 L 581.94 334.08 L 582.19 334.00 L 582.44 333.91 L 582.69 333.83 L 582.93 333.74 L 583.18 333.66 L 583.43 333.57 L 583.68 333.48 L 583.93 333.39 L 584.18 333.30 L 584.43 333.21 L 584.68 333.12 L 584.93 333.03 L 585.18 332.93 L 585.42 332.84 L 585.67 332.74 L 585.92 332.65 L 586.17 332.55 L 586.42 332.45 L 586.67 332.35 L 586.92 332.25 L 587.16 332.15 L 587.41 332.05 L 587.66 331.95 L 587.91 331.85 L 588.16 331.74 L 588.41 331.64 L 588.65 331.53 L 588.90 331.42 L 589.15 331.31 L 589.40 331.21 L 589.64 331.10 L 589.89 330.99 L 590.14 330.87 L 590.39 330.76 L 590.63 330.65 L 590.88 330.53 L 591.13 330.42 L 591.38 330.30 L 591.62 330.18 L 591.87 330.07 L 592.12 329.95 L 592.36 329.83 L 592.61 329.71 L 592.86 329.59 L 593.10 329.46 L 593.35 329.34 L 593.60 329.21 L 593.84 329.09 L 594.09 328.96 L 594.34 328.84 L 594.58 328.71 L 594.83 328.58 L 595.07 328.45 L 595.32 328.32 L 595.57 328.18 L 595.81 328.05 L 596.06 327.92 L 596.30 327.78 L 596.55 327.65 L 596.79 327.51 L 597.04 327.37 L 597.28 327.23 L 597.53 327.09 L 597.77 326.95 L 598.02 326.81 L 598.26 326.67 L 598.51 326.52 L 598.75 326.38 L 598.99 326.23 L 599.24 326.09 L 599.48 325.94 L 599.73 325.79 L 599.97 325.64 L 600.21 325.49 L 600.46 325.34 L 600.70 325.19 L 600.94 325.04 L 601.19 324.88 L 601.43 324.73 L 601.67 324.57 L 601.91 324.41 L 602.16 324.25 L 602.40 324.10 L 602.64 323.94 L 602.88 323.77 L 603.13 323.61 L 603.37 323.45 L 603.61 323.28 L 603.85 323.12 L 604.09 322.95 L 604.33 322.79 L 604.58 322.62 L 604.82 322.45 L 605.06 322.28 L 605.30 322.11 L 605.54 321.94 L 605.78 321.76 L 606.02 321.59 L 606.26 321.41 L 606.50 321.24 L 606.74 321.06 L 606.98 320.88 L 607.22 320.70 L 607.46 320.52 L 607.70 320.34 L 607.94 320.16 L 608.18 319.97 L 608.42 319.79 L 608.65 319.60 L 608.89 319.42 L 609.13 319.23 L 609.37 319.04 L 609.61 318.85 L 609.84 318.66 L 610.08 318.47 L 610.32 318.28 L 610.56 318.08 L 610.79 317.89 L 611.03 317.69 L 611.27 317.50 L 611.51 317.30 L 611.74 317.10 L 611.98 316.90 L 612.21 316.70 L 612.45 316.50 L 612.69 316.29 L 612.92 316.09 L 613.16 315.88 L 613.39 315.68 L 613.63 315.47 L 613.86 315.26 L 614.10 315.05 L 614.33 314.84 L 614.57 314.63 L 614.80 314.42 L 615.03 314.21 L 615.27 313.99 L 615.50 313.77 L 615.73 313.56 L 615.97 313.34 L 616.20 313.12 L 616.43 312.90 L 616.67 312.68 L 616.90 312.46 L 617.13 312.23 L 617.36 312.01 L 617.59 311.78 L 617.83 311.56 L 618.06 311.33 L 618.29 311.10 L 618.52 310.87 L 618.75 310.64 L 618.98 310.41 L 619.21 310.18 L 619.44 309.94 L 619.67 309.71 L 619.90 309.47 L 620.13 309.23 L 620.36 308.99 L 620.59 308.75 L 620.82 308.51 L 621.05 308.27 L 621.28 308.03 L 621.50 307.78 L 621.73 307.54 L 621.96 307.29 L 622.19 307.04 L 622.41 306.80 L 622.64 306.55 L 622.87 306.30 L 623.09 306.04 L 623.32 305.79 L 623.55 305.54 L 623.77 305.28 L 624.00 305.02 L 624.22 304.77 L 624.45 304.51 L 624.67 304.25 L 624.90 303.99 L 625.12 303.73 L 625.35 303.46 L 625.57 303.20 L 625.80 302.93 L 626.02 302.67 L 626.24 302.40 L 626.47 302.13 L 626.69 301.86 L 626.91 301.59 L 627.13 301.32 L 627.36 301.04 L 627.58 300.77 L 627.80 300.49 L 628.02 300.22 L 628.24 299.94 L 628.46 299.66 L 628.68 299.38 L 628.90 299.10 L 629.12 298.81 L 629.34 298.53 L 629.56 298.25 L 629.78 297.96 L 630.00 297.67 L 630.22 297.38 L 630.44 297.09 L 630.66 296.80 L 630.87 296.51 L 631.09 296.22 L 631.31 295.92 L 631.53 295.63 L 631.74 295.33 L 631.96 295.03 L 632.18 294.73 L 632.39 294.43 L 632.61 294.13 L 632.82 293.83 L 633.04 293.53 L 633.25 293.22 L 633.47 292.92 L 633.68 292.61 L 633.90 292.30 L 634.11 291.99 L 634.32 291.68 L 634.54 291.37 L 634.75 291.05 L 634.96 290.74 L 635.17 290.42 L 635.39 290.11 L 635.60 289.79 L 635.81 289.47 L 636.02 289.15 L 636.23 288.83 L 636.44 288.51 L 636.65 288.18 L 636.86 287.86 L 637.07 287.53 L 637.28 287.20 L 637.49 286.87 L 637.70 286.54 L 637.91 286.21 L 638.12 285.88 L 638.32 285.54 L 638.53 285.21 L 638.74 284.87 L 638.94 284.54 L 639.15 284.20 L 639.36 283.86 L 639.56 283.52 L 639.77 283.17 L 639.97 282.83 L 640.18 282.49 L 640.38 282.14 L 640.59 281.79 L 640.79 281.44 L 641.00 281.09 L 641.20 280.74 L 641.40 280.39 L 641.61 280.04 L 641.81 279.68 L 642.01 279.33 L 642.21 278.97 L 642.41 278.61 L 642.61 278.25 L 642.82 277.89 L 643.02 277.53 L 643.22 277.16 L 643.42 276.80 L 643.62 276.43 L 643.81 276.07 L 644.01 275.70 L 644.21 275.33 L 644.41 274.96 L 644.61 274.58 L 644.80 274.21 L 645.00 273.83 L 645.20 273.46 L 645.39 273.08 L 645.59 272.70 L 645.79 272.32 L 645.98 271.94 L 646.18 271.56 L 646.37 271.17 L 646.57 270.79 L 646.76 270.40 L 646.95 270.02 L 647.15 269.63 L 647.34 269.24 L 647.53 268.84 L 647.72 268.45 L 647.92 268.06 L 648.11 267.66 L 648.30 267.27 L 648.49 266.87 L 648.68 266.47 L 648.87 266.07 L 649.06 265.67 L 649.25 265.26 L 649.44 264.86 L 649.62 264.45 L 649.81 264.04 L 650.00 263.64"/>
	</g>
	<g id="poloto_plot1" class="poloto_plot poloto_imgs poloto_scatter poloto1 poloto_stroke">
		<path d=" M 150.00 263.64 h 0.00 M 196.88 250.00 h 0.00 M 212.50 209.09 h 0.00 M 232.03 171.59 h 0.00 M 232.03 171.59 h 0.00 M 251.56 134.09 h 0.00 M 275.00 100.00 h 0.00 M 337.50 100.00 h 0.00 M 337.50 100.00 h 0.00 M 337.50 209.09 h 0.00 M 462.50 209.09 h 0.00 M 462.50 263.64 h 0.00 M 462.50 263.64 h 0.00 M 462.50 318.18 h 0.00 M 587.50 400.00 h 0.00 M 650.00 263.64 h 0.00"/>
	</g>
	<text class="poloto_text poloto_name poloto_title" x="400.00" y="37.50"></text>
	<text class="poloto_text poloto_name poloto_x" x="400.00" y="481.25"></text>
	<text class="poloto_text poloto_name poloto_y" x="37.50" y="250.00" transform="rotate(-90,37.50,250.00)"></text>
	<text class="poloto_text poloto_ticks poloto_y">
		<tspan x="135.00" y="372.73">-2</tspan>
		<tspan x="135.00" y="318.18">-1</tspan>
		<tspan x="135.00" y="263.64">0</tspan>
		<tspan x="135.00" y="209.09">1</tspan>
		<tspan x="135.00" y="154.55">2</tspan>
		<tspan x="135.00" y="100.00">3</tspan>
	</text>
	<g class="poloto_imgs poloto_ticks poloto_y">
		<line x1="150.00" x2="144.00" y1="372.73" y2="372.73"/>
		<line x1="150.00" x2="144.00" y1="318.18" y2="318.18"/>
		<line x1="150.00" x2="144.00" y1="263.64" y2="263.64"/>
		<line x1="150.00" x2="144.00" y1="209.09" y2="209.09"/>
		<line x1="150.00" x2="144.00" y1="154.55" y2="154.55"/>
		<line x1="150.00" x2="144.00" y1="100.00" y2="100.00"/>
	</g>
	<text class="poloto_text poloto_ticks poloto_x">
		<tspan x="150.00" y="430.00">0</tspan>
		<tspan x="275.00" y="430.00">2</tspan>
		<tspan x="400.00" y="430.00">4</tspan>
		<tspan x="525.00" y="430.00">6</tspan>
		<tspan x="650.00" y="430.00">8</tspan>
	</text>
	<g class="poloto_imgs poloto_ticks poloto_x">
		<line x1="150.00" x2="150.00" y1="400.00" y2="405.00"/>
		<line x1="275.00" x2="275.00" y1="400.00" y2="405.00"/>
		<line x1="400.00" x2="400.00" y1="400.00" y2="405.00"/>
		<line x1="525.00" x2="525.00" y1="400.00" y2="405.00"/>
		<line x1="650.00" x2="650.00" y1="400.00" y2="405.00"/>
	</g>
	<path class="poloto_imgs poloto_ticks poloto_x" style="stroke-dasharray:6.25;stroke-dashoffset:-0;" d=" M 150.00 400.00 L 650.00 400.00"/>
	<path class="poloto_imgs poloto_ticks poloto_y" style="stroke-dasharray:13.636363636363637;stroke-dashoffset:-27.27272727272728;" d=" M 150.00 400.00 L 150.00 100.00"/>
</svg>
